<svg class="main-svg" xmlns="http://www.w3.org/2000/svg" xmlns:xlink="http://www.w3.org/1999/xlink" width="1700" height="1200" style="" viewBox="0 0 850 600"><rect x="0" y="0" width="850" height="600" style="fill: rgb(255, 255, 255); fill-opacity: 1;"/><defs id="defs-1e7dc1"><g class="clips"><clipPath id="clip1e7dc1polar-for-traces"><path d="M192,0A192,192 0,1,0 -192,-2.351321854362918e-14A192,192 0,1,0 192,4.702643708725836e-14Z" transform="translate(192,192)"/></clipPath><clipPath id="clip1e7dc1polar2-for-traces"><path d="M192,0A192,192 0,1,0 -192,-2.351321854362918e-14A192,192 0,1,0 192,4.702643708725836e-14Z" transform="translate(192,192)"/></clipPath></g><g class="gradients"/><g class="patterns"/></defs><g class="bglayer"/><g class="layer-below"><g class="imagelayer"/><g class="shapelayer"/></g><g class="cartesianlayer"/><g class="polarlayer"><g class="polar"><g class="polarsublayer draglayer"/><g class="polarsublayer plotbg"><path d="M192,0A192,192 0,1,0 -192,-2.351321854362918e-14A192,192 0,1,0 192,4.702643708725836e-14Z" transform="translate(440,272)" style="fill: rgb(0, 0, 0); fill-opacity: 0;"/></g><g class="polarsublayer backplot"><g class="maplayer"/></g><g class="polarsublayer angular-grid" style="fill: none;"/><g class="polarsublayer radial-grid" display="none" style="fill: none;"/><g class="polarsublayer frontplot" transform="translate(248,80)" clip-path="url(#clip1e7dc1polar-for-traces)"><g class="barlayer"><g class="trace bars" style="opacity: 1;"><g class="points"><g class="point" style="vector-effect: non-scaling-stroke; stroke-miterlimit: 2;"><path d="M192,192A0,0 0,1,0 192,192A0,0 0,1,0 192,192ZM347.6756756756757,192A155.67567567567568,155.67567567567568 0,1,1 36.32432432432432,191.99999999999997A155.67567567567568,155.67567567567568 0,1,1 347.6756756756757,192.00000000000003Z" style="opacity: 1; stroke-width: 0.5px; fill: rgb(233, 240, 250); fill-opacity: 1; stroke: rgb(229, 236, 246); stroke-opacity: 1;"/></g></g></g></g><g class="scatterlayer"><g class="trace scatter trace9e678a" style="stroke-miterlimit: 2; opacity: 1;"><g class="fills"/><g class="errorbars"/><g class="lines"/><g class="points"/><g class="text"/></g><g class="trace scatter trace0f9846" style="stroke-miterlimit: 2; opacity: 1;"><g class="fills"/><g class="errorbars"/><g class="lines"/><g class="points"/><g class="text"/></g><g class="trace scatter trace731fcc" style="stroke-miterlimit: 2; opacity: 1;"><g class="fills"/><g class="errorbars"/><g class="lines"><path class="js-line" d="M269.84,192L269.68,187.06L269.21,182.15L268.43,177.27L267.34,172.45L265.95,167.71L264.26,163.07L262.28,158.55L260.02,154.16L257.48,149.92L254.68,145.85L251.63,141.97L248.33,138.29L244.81,134.82L241.08,131.59L237.15,128.6L233.04,125.86L228.76,123.39L224.34,121.2L219.78,119.29L215.11,117.67L210.35,116.36L205.52,115.34L200.63,114.64L195.7,114.25L190.77,114.17L185.83,114.41L180.92,114.95L176.06,115.81L171.26,116.98L166.54,118.44L161.93,120.21L157.43,122.26L153.08,124.59L148.88,127.19L144.86,130.06L141.03,133.17L137.4,136.53L133.99,140.1L130.82,143.88L127.89,147.86L125.22,152.02L122.81,156.33L120.69,160.79L118.86,165.38L117.32,170.07L116.07,174.85L115.14,179.7L114.51,184.6L114.2,189.53L114.2,194.47L114.51,199.4L115.14,204.3L116.07,209.15L117.32,213.93L118.86,218.62L120.69,223.21L122.81,227.67L125.22,231.98L127.89,236.14L130.82,240.12L133.99,243.9L137.4,247.47L141.03,250.83L144.86,253.94L148.88,256.81L153.08,259.41L157.43,261.74L161.93,263.79L166.54,265.56L171.26,267.02L176.06,268.19L180.92,269.05L185.83,269.59L190.77,269.83L195.7,269.75L200.63,269.36L205.52,268.66L210.35,267.64L215.11,266.33L219.78,264.71L224.34,262.8L228.76,260.61L233.04,258.14L237.15,255.4L241.08,252.41L244.81,249.18L248.33,245.71L251.63,242.03L254.68,238.15L257.48,234.08L260.02,229.84L262.28,225.45L264.26,220.93L265.95,216.29L267.34,211.55L268.43,206.73L269.21,201.85L269.68,196.94L269.84,192" style="vector-effect: non-scaling-stroke; fill: none; stroke: rgb(227, 228, 230); stroke-opacity: 1; stroke-width: 0.7px; opacity: 1;"/></g><g class="points"/><g class="text"/></g><g class="trace scatter trace98d46a" style="stroke-miterlimit: 2; opacity: 1;"><g class="fills"/><g class="errorbars"/><g class="lines"><path class="js-line" d="M321.73,192L321.47,183.77L320.69,175.58L319.39,167.45L317.57,159.42L315.25,151.52L312.44,143.78L309.14,136.24L305.36,128.93L301.14,121.86L296.47,115.08L291.38,108.61L285.89,102.48L280.02,96.7L273.8,91.31L267.25,86.33L260.4,81.77L253.27,77.65L245.89,73.99L238.3,70.81L230.52,68.12L222.58,65.93L214.53,64.24L206.38,63.07L198.17,62.42L189.94,62.29L181.72,62.68L173.54,63.59L165.43,65.02L157.43,66.96L149.57,69.41L141.88,72.34L134.39,75.76L127.14,79.65L120.14,83.99L113.43,88.77L107.05,93.96L101,99.54L95.32,105.5L90.03,111.81L85.14,118.44L80.69,125.36L76.69,132.55L73.15,139.99L70.09,147.63L67.53,155.45L65.46,163.42L63.9,171.5L62.86,179.67L62.34,187.88L62.34,196.12L62.86,204.33L63.9,212.5L65.46,220.58L67.53,228.55L70.09,236.37L73.15,244.01L76.69,251.45L80.69,258.64L85.14,265.56L90.03,272.19L95.32,278.5L101,284.46L107.05,290.04L113.43,295.23L120.14,300.01L127.14,304.35L134.39,308.24L141.88,311.66L149.57,314.59L157.43,317.04L165.43,318.98L173.54,320.41L181.72,321.32L189.94,321.71L198.17,321.58L206.38,320.93L214.53,319.76L222.58,318.07L230.52,315.88L238.3,313.19L245.89,310.01L253.27,306.35L260.4,302.23L267.25,297.67L273.8,292.69L280.02,287.3L285.89,281.52L291.38,275.39L296.47,268.92L301.14,262.14L305.36,255.07L309.14,247.76L312.44,240.22L315.25,232.48L317.57,224.58L319.39,216.55L320.69,208.42L321.47,200.23L321.73,192" style="vector-effect: non-scaling-stroke; fill: none; stroke: rgb(227, 228, 230); stroke-opacity: 1; stroke-width: 0.7px; opacity: 1;"/></g><g class="points"/><g class="text"/></g><g class="trace scatter traceaf6ee3" style="stroke-miterlimit: 2; opacity: 1;"><g class="fills"/><g class="errorbars"/><g class="lines"><path class="js-line" d="M347.68,192L347.36,182.13L346.42,172.29L344.86,162.54L342.69,152.9L339.9,143.42L336.52,134.14L332.56,125.09L328.04,116.31L322.96,107.84L317.36,99.7L311.25,91.93L304.67,84.57L297.63,77.64L290.16,71.17L282.3,65.19L274.08,59.72L265.52,54.78L256.67,50.39L247.56,46.58L238.22,43.34L228.7,40.71L219.03,38.69L209.25,37.28L199.41,36.5L189.53,36.34L179.66,36.81L169.85,37.91L160.12,39.62L150.52,41.95L141.08,44.89L131.86,48.41L122.87,52.52L114.16,57.18L105.77,62.39L97.72,68.12L90.05,74.35L82.8,81.05L75.98,88.2L69.63,95.77L63.77,103.72L58.43,112.03L53.63,120.67L49.38,129.58L45.71,138.76L42.63,148.14L40.15,157.7L38.28,167.4L37.03,177.2L36.4,187.06L36.4,196.94L37.03,206.8L38.28,216.6L40.15,226.3L42.63,235.86L45.71,245.24L49.38,254.42L53.63,263.33L58.43,271.97L63.77,280.28L69.63,288.23L75.98,295.8L82.8,302.95L90.05,309.65L97.72,315.88L105.77,321.61L114.16,326.82L122.87,331.48L131.86,335.59L141.08,339.11L150.52,342.05L160.12,344.38L169.85,346.09L179.66,347.19L189.53,347.66L199.41,347.5L209.25,346.72L219.03,345.31L228.7,343.29L238.22,340.66L247.56,337.42L256.67,333.61L265.52,329.22L274.08,324.28L282.3,318.81L290.16,312.83L297.63,306.36L304.67,299.43L311.25,292.07L317.36,284.3L322.96,276.16L328.04,267.69L332.56,258.91L336.52,249.86L339.9,240.58L342.69,231.1L344.86,221.46L346.42,211.71L347.36,201.87L347.68,192" style="vector-effect: non-scaling-stroke; fill: none; stroke: rgb(227, 228, 230); stroke-opacity: 1; stroke-width: 0.7px; opacity: 1;"/></g><g class="points"/><g class="text"/></g></g></g><g class="polarsublayer angular-line"><path display="none" style="fill: none; stroke: rgb(0, 0, 0); stroke-opacity: 1;"/></g><g class="polarsublayer radial-line"><line display="none" style="fill: none; stroke: rgb(0, 0, 0); stroke-opacity: 1;"/></g><g class="polarsublayer angular-axis"/><g class="polarsublayer radial-axis" display="none"/></g><g class="polar2"><g class="polarsublayer draglayer"/><g class="polarsublayer plotbg"><path d="M192,0A192,192 0,1,0 -192,-2.351321854362918e-14A192,192 0,1,0 192,4.702643708725836e-14Z" transform="translate(440,272)" style="fill: rgb(0, 0, 0); fill-opacity: 0;"/></g><g class="polarsublayer backplot"><g class="maplayer"/></g><g class="polarsublayer angular-grid" style="fill: none;"/><g class="polarsublayer radial-grid" display="none" style="fill: none;"/><g class="polarsublayer frontplot" transform="translate(248,80)" clip-path="url(#clip1e7dc1polar2-for-traces)"><g class="barlayer"><g class="trace bars" style="opacity: 1;"><g class="points"><g class="point" style="vector-effect: non-scaling-stroke; stroke-miterlimit: 2;"><path d="M192,192L152.24850457328546,158.6445348486985A51.89189189189189,51.89189189189189 0,0,0 140.10810810810813,192L192,192A0,0 0,0,1 192,192Z" style="opacity: 1; stroke-width: 0px; fill: rgb(134, 168, 81); fill-opacity: 1;"/></g><g class="point" style="vector-effect: non-scaling-stroke; stroke-miterlimit: 2;"><path d="M192,192L182.9890675372836,140.89646254639354A51.89189189189189,51.89189189189189 0,0,0 152.24850457328546,158.6445348486985L192,192A0,0 0,0,1 192,192Z" style="opacity: 1; stroke-width: 0px; fill: rgb(134, 168, 81); fill-opacity: 1;"/></g><g class="point" style="vector-effect: non-scaling-stroke; stroke-miterlimit: 2;"><path d="M192,192L200.4618030282428,177.34372723144327A16.92360605648561,16.92360605648561 0,0,0 189.06124664873826,175.33350154664862L192,192A0,0 0,0,1 192,192Z" style="opacity: 1; stroke-width: 0px; fill: rgb(134, 168, 81); fill-opacity: 1;"/></g><g class="point" style="vector-effect: non-scaling-stroke; stroke-miterlimit: 2;"><path d="M192,192L240.7624278894309,174.25192769769504A51.89189189189189,51.89189189189189 0,0,0 217.9459459459459,147.06030337118585L192,192A0,0 0,0,1 192,192Z" style="opacity: 1; stroke-width: 0px; fill: rgb(134, 168, 81); fill-opacity: 1;"/></g><g class="point" style="vector-effect: non-scaling-stroke; stroke-miterlimit: 2;"><path d="M192,192L240.76242788943094,209.74807230230493A51.89189189189189,51.89189189189189 0,0,0 240.7624278894309,174.25192769769504L192,192A0,0 0,0,1 192,192Z" style="opacity: 1; stroke-width: 0px; fill: rgb(134, 168, 81); fill-opacity: 1;"/></g><g class="point" style="vector-effect: non-scaling-stroke; stroke-miterlimit: 2;"><path d="M192,192L217.94594594594597,236.9396966288141A51.89189189189189,51.89189189189189 0,0,0 240.76242788943094,209.74807230230493L192,192A0,0 0,0,1 192,192Z" style="opacity: 1; stroke-width: 0px; fill: rgb(134, 168, 81); fill-opacity: 1;"/></g><g class="point" style="vector-effect: non-scaling-stroke; stroke-miterlimit: 2;"><path d="M192,192L182.98906753728355,243.10353745360646A51.89189189189189,51.89189189189189 0,0,0 217.94594594594594,236.93969662881412L192,192A0,0 0,0,1 192,192Z" style="opacity: 1; stroke-width: 0px; fill: rgb(134, 168, 81); fill-opacity: 1;"/></g><g class="point" style="vector-effect: non-scaling-stroke; stroke-miterlimit: 2;"><path d="M192,192L152.24850457328546,225.35546515130147A51.89189189189189,51.89189189189189 0,0,0 182.98906753728355,243.10353745360646L192,192A0,0 0,0,1 192,192Z" style="opacity: 1; stroke-width: 0px; fill: rgb(134, 168, 81); fill-opacity: 1;"/></g><g class="point" style="vector-effect: non-scaling-stroke; stroke-miterlimit: 2;"><path d="M192,192L140.10810810810813,192.00000000000003A51.89189189189189,51.89189189189189 0,0,0 152.24850457328546,225.35546515130147L192,192A0,0 0,0,1 192,192Z" style="opacity: 1; stroke-width: 0px; fill: rgb(134, 168, 81); fill-opacity: 1;"/></g></g></g><g class="trace bars" style="opacity: 1;"><g class="points"><g class="point" style="vector-effect: non-scaling-stroke; stroke-miterlimit: 2;"><path d="M152.24850457328546,158.6445348486985L112.49700914657093,125.28906969739701A103.78378378378378,103.78378378378378 0,0,0 88.21621621621622,192L140.10810810810813,192A51.89189189189189,51.89189189189189 0,0,1 152.24850457328546,158.6445348486985Z" style="opacity: 1; stroke-width: 0px; fill: rgb(250, 184, 0); fill-opacity: 1;"/></g><g class="point" style="vector-effect: non-scaling-stroke; stroke-miterlimit: 2;"><path d="M182.9890675372836,140.89646254639354L173.97813507456723,89.79292509278707A103.78378378378378,103.78378378378378 0,0,0 112.49700914657093,125.28906969739701L152.24850457328546,158.6445348486985A51.89189189189189,51.89189189189189 0,0,1 182.9890675372836,140.89646254639354Z" style="opacity: 1; stroke-width: 0px; fill: rgb(250, 184, 0); fill-opacity: 1;"/></g><g class="point" style="vector-effect: non-scaling-stroke; stroke-miterlimit: 2;"><path d="M0,0Z" style="opacity: 1; stroke-width: 0px; fill: rgb(250, 184, 0); fill-opacity: 1;"/></g><g class="point" style="vector-effect: non-scaling-stroke; stroke-miterlimit: 2;"><path d="M240.7624278894309,174.25192769769504L274.57104455943636,161.94659756809693A87.87027027027027,87.87027027027027 0,0,0 235.93513513513508,115.9021137085414L217.9459459459459,147.06030337118585A51.89189189189189,51.89189189189189 0,0,1 240.7624278894309,174.25192769769504Z" style="opacity: 1; stroke-width: 0px; fill: rgb(250, 184, 0); fill-opacity: 1;"/></g><g class="point" style="vector-effect: non-scaling-stroke; stroke-miterlimit: 2;"><path d="M240.76242788943094,209.74807230230493L272.4254916980978,221.2724850543311A85.58702060556166,85.58702060556166 0,0,0 272.4254916980978,162.72751494566884L240.7624278894309,174.25192769769504A51.89189189189189,51.89189189189189 0,0,1 240.76242788943094,209.74807230230493Z" style="opacity: 1; stroke-width: 0px; fill: rgb(250, 184, 0); fill-opacity: 1;"/></g><g class="point" style="vector-effect: non-scaling-stroke; stroke-miterlimit: 2;"><path d="M217.94594594594597,236.9396966288141L243.89189189189193,281.8793932576282A103.78378378378378,103.78378378378378 0,0,0 289.5248557788619,227.49614460460987L240.76242788943094,209.74807230230493A51.89189189189189,51.89189189189189 0,0,1 217.94594594594597,236.9396966288141Z" style="opacity: 1; stroke-width: 0px; fill: rgb(250, 184, 0); fill-opacity: 1;"/></g><g class="point" style="vector-effect: non-scaling-stroke; stroke-miterlimit: 2;"><path d="M182.98906753728355,243.10353745360646L173.9781350745671,294.2070749072129A103.78378378378378,103.78378378378378 0,0,0 243.89189189189187,281.87939325762824L217.94594594594594,236.93969662881412A51.89189189189189,51.89189189189189 0,0,1 182.98906753728355,243.10353745360646Z" style="opacity: 1; stroke-width: 0px; fill: rgb(250, 184, 0); fill-opacity: 1;"/></g><g class="point" style="vector-effect: non-scaling-stroke; stroke-miterlimit: 2;"><path d="M152.24850457328546,225.35546515130147L151.22392909788866,226.2151860548202A53.229380185945935,53.229380185945935 0,0,0 182.7568151323702,244.42070629515396L182.98906753728355,243.10353745360646A51.89189189189189,51.89189189189189 0,0,1 152.24850457328546,225.35546515130147Z" style="opacity: 1; stroke-width: 0px; fill: rgb(250, 184, 0); fill-opacity: 1;"/></g><g class="point" style="vector-effect: non-scaling-stroke; stroke-miterlimit: 2;"><path d="M140.10810810810813,192.00000000000003L102.34708423900054,192.00000000000003A89.65291576099946,89.65291576099946 0,0,0 123.3218820718725,249.62778342344149L152.24850457328546,225.35546515130147A51.89189189189189,51.89189189189189 0,0,1 140.10810810810813,192.00000000000003Z" style="opacity: 1; stroke-width: 0px; fill: rgb(250, 184, 0); fill-opacity: 1;"/></g></g></g><g class="trace bars" style="opacity: 1;"><g class="points"><g class="point" style="vector-effect: non-scaling-stroke; stroke-miterlimit: 2;"><path d="M112.49700914657093,125.28906969739701L96.85851757567356,112.16681718808803A124.19838467459459,124.19838467459459 0,0,0 67.80161532540541,192.00000000000003L88.21621621621622,192A103.78378378378378,103.78378378378378 0,0,1 112.49700914657093,125.28906969739701Z" style="opacity: 1; stroke-width: 0px; fill: rgb(240, 114, 4); fill-opacity: 1;"/></g><g class="point" style="vector-effect: non-scaling-stroke; stroke-miterlimit: 2;"><path d="M173.97813507456723,89.79292509278707L163.44616540390112,30.063156974773165A164.43497985257983,164.43497985257983 0,0,0 66.03549742955009,86.30323235170597L112.49700914657093,125.28906969739701A103.78378378378378,103.78378378378378 0,0,1 173.97813507456723,89.79292509278707Z" style="opacity: 1; stroke-width: 0px; fill: rgb(240, 114, 4); fill-opacity: 1;"/></g><g class="point" style="vector-effect: non-scaling-stroke; stroke-miterlimit: 2;"><path d="M0,0Z" style="opacity: 1; stroke-width: 0px; fill: rgb(240, 114, 4); fill-opacity: 1;"/></g><g class="point" style="vector-effect: non-scaling-stroke; stroke-miterlimit: 2;"><path d="M0,0Z" style="opacity: 1; stroke-width: 0px; fill: rgb(240, 114, 4); fill-opacity: 1;"/></g><g class="point" style="vector-effect: non-scaling-stroke; stroke-miterlimit: 2;"><path d="M0,0Z" style="opacity: 1; stroke-width: 0px; fill: rgb(240, 114, 4); fill-opacity: 1;"/></g><g class="point" style="vector-effect: non-scaling-stroke; stroke-miterlimit: 2;"><path d="M243.89189189189193,281.8793932576282L274.85458141067903,335.5083446431478A165.70916282135792,165.70916282135792 0,0,0 347.7156774998407,248.67587161853731L289.5248557788619,227.49614460460987A103.78378378378378,103.78378378378378 0,0,1 243.89189189189193,281.8793932576282Z" style="opacity: 1; stroke-width: 0px; fill: rgb(240, 114, 4); fill-opacity: 1;"/></g><g class="point" style="vector-effect: non-scaling-stroke; stroke-miterlimit: 2;"><path d="M173.9781350745671,294.2070749072129L169.94166213237193,317.09905051966297A127.02890501930503,127.02890501930503 0,0,0 255.51445250965247,302.01025876163874L243.89189189189187,281.87939325762824A103.78378378378378,103.78378378378378 0,0,1 173.9781350745671,294.2070749072129Z" style="opacity: 1; stroke-width: 0px; fill: rgb(240, 114, 4); fill-opacity: 1;"/></g><g class="point" style="vector-effect: non-scaling-stroke; stroke-miterlimit: 2;"><path d="M0,0Z" style="opacity: 1; stroke-width: 0px; fill: rgb(240, 114, 4); fill-opacity: 1;"/></g><g class="point" style="vector-effect: non-scaling-stroke; stroke-miterlimit: 2;"><path d="M0,0Z" style="opacity: 1; stroke-width: 0px; fill: rgb(240, 114, 4); fill-opacity: 1;"/></g></g></g></g><g class="scatterlayer"><g class="trace scatter trace2298ea" style="stroke-miterlimit: 2; opacity: 1;"><g class="fills"/><g class="errorbars"/><g class="lines"><path class="js-line" d="M114.16,192L114.32,187.06L114.79,182.15L115.57,177.27L116.66,172.45L118.05,167.71L119.74,163.07L121.72,158.55L123.98,154.16L126.52,149.92L129.32,145.85L132.37,141.97L135.67,138.29L139.19,134.82L142.92,131.59L146.85,128.6L150.96,125.86L155.24,123.39L159.66,121.2L164.22,119.29L168.89,117.67L173.65,116.36L178.48,115.34L183.37,114.64L188.3,114.25L193.23,114.17L198.17,114.41L203.08,114.95L207.94,115.81L212.74,116.98L217.46,118.44L222.07,120.21L226.57,122.26L230.92,124.59L235.12,127.19L239.14,130.06L242.97,133.17L246.6,136.53L250.01,140.1L253.18,143.88L256.11,147.86L258.78,152.02L261.19,156.33L263.31,160.79L265.14,165.38L266.68,170.07L267.93,174.85L268.86,179.7L269.49,184.6L269.8,189.53L269.8,194.47L269.49,199.4L268.86,204.3L267.93,209.15L266.68,213.93L265.14,218.62L263.31,223.21L261.19,227.67L258.78,231.98L256.11,236.14L253.18,240.12L250.01,243.9L246.6,247.47L242.97,250.83L239.14,253.94L235.12,256.81L230.92,259.41L226.57,261.74L222.07,263.79L217.46,265.56L212.74,267.02L207.94,268.19L203.08,269.05L198.17,269.59L193.23,269.83L188.3,269.75L183.37,269.36L178.48,268.66L173.65,267.64L168.89,266.33L164.22,264.71L159.66,262.8L155.24,260.61L150.96,258.14L146.85,255.4L142.92,252.41L139.19,249.18L135.67,245.71L132.37,242.03L129.32,238.15L126.52,234.08L123.98,229.84L121.72,225.45L119.74,220.93L118.05,216.29L116.66,211.55L115.57,206.73L114.79,201.85L114.32,196.94L114.16,192" style="vector-effect: non-scaling-stroke; fill: none; stroke: rgb(227, 228, 230); stroke-opacity: 1; stroke-width: 0.7px; opacity: 1;"/></g><g class="points"/><g class="text"/></g><g class="trace scatter tracee7c0b0" style="stroke-miterlimit: 2; opacity: 1;"><g class="fills"/><g class="errorbars"/><g class="lines"><path class="js-line" d="M62.27,192L62.53,183.77L63.31,175.58L64.61,167.45L66.43,159.42L68.75,151.52L71.56,143.78L74.86,136.24L78.64,128.93L82.86,121.86L87.53,115.08L92.62,108.61L98.11,102.48L103.98,96.7L110.2,91.31L116.75,86.33L123.6,81.77L130.73,77.65L138.11,73.99L145.7,70.81L153.48,68.12L161.42,65.93L169.47,64.24L177.62,63.07L185.83,62.42L194.06,62.29L202.28,62.68L210.46,63.59L218.57,65.02L226.57,66.96L234.43,69.41L242.12,72.34L249.61,75.76L256.86,79.65L263.86,83.99L270.57,88.77L276.95,93.96L283,99.54L288.68,105.5L293.97,111.81L298.86,118.44L303.31,125.36L307.31,132.55L310.85,139.99L313.91,147.63L316.47,155.45L318.54,163.42L320.1,171.5L321.14,179.67L321.66,187.88L321.66,196.12L321.14,204.33L320.1,212.5L318.54,220.58L316.47,228.55L313.91,236.37L310.85,244.01L307.31,251.45L303.31,258.64L298.86,265.56L293.97,272.19L288.68,278.5L283,284.46L276.95,290.04L270.57,295.23L263.86,300.01L256.86,304.35L249.61,308.24L242.12,311.66L234.43,314.59L226.57,317.04L218.57,318.98L210.46,320.41L202.28,321.32L194.06,321.71L185.83,321.58L177.62,320.93L169.47,319.76L161.42,318.07L153.48,315.88L145.7,313.19L138.11,310.01L130.73,306.35L123.6,302.23L116.75,297.67L110.2,292.69L103.98,287.3L98.11,281.52L92.62,275.39L87.53,268.92L82.86,262.14L78.64,255.07L74.86,247.76L71.56,240.22L68.75,232.48L66.43,224.58L64.61,216.55L63.31,208.42L62.53,200.23L62.27,192" style="vector-effect: non-scaling-stroke; fill: none; stroke: rgb(227, 228, 230); stroke-opacity: 1; stroke-width: 0.7px; opacity: 1;"/></g><g class="points"/><g class="text"/></g><g class="trace scatter trace1ab1c6" style="stroke-miterlimit: 2; opacity: 1;"><g class="fills"/><g class="errorbars"/><g class="lines"><path class="js-line" d="M36.32,192L36.64,182.13L37.58,172.29L39.14,162.54L41.31,152.9L44.1,143.42L47.48,134.14L51.44,125.09L55.96,116.31L61.04,107.84L66.64,99.7L72.75,91.93L79.33,84.57L86.37,77.64L93.84,71.17L101.7,65.19L109.92,59.72L118.48,54.78L127.33,50.39L136.44,46.58L145.78,43.34L155.3,40.71L164.97,38.69L174.75,37.28L184.59,36.5L194.47,36.34L204.34,36.81L214.15,37.91L223.88,39.62L233.48,41.95L242.92,44.89L252.14,48.41L261.13,52.52L269.84,57.18L278.23,62.39L286.28,68.12L293.95,74.35L301.2,81.05L308.02,88.2L314.37,95.77L320.23,103.72L325.57,112.03L330.37,120.67L334.62,129.58L338.29,138.76L341.37,148.14L343.85,157.7L345.72,167.4L346.97,177.2L347.6,187.06L347.6,196.94L346.97,206.8L345.72,216.6L343.85,226.3L341.37,235.86L338.29,245.24L334.62,254.42L330.37,263.33L325.57,271.97L320.23,280.28L314.37,288.23L308.02,295.8L301.2,302.95L293.95,309.65L286.28,315.88L278.23,321.61L269.84,326.82L261.13,331.48L252.14,335.59L242.92,339.11L233.48,342.05L223.88,344.38L214.15,346.09L204.34,347.19L194.47,347.66L184.59,347.5L174.75,346.72L164.97,345.31L155.3,343.29L145.78,340.66L136.44,337.42L127.33,333.61L118.48,329.22L109.92,324.28L101.7,318.81L93.84,312.83L86.37,306.36L79.33,299.43L72.75,292.07L66.64,284.3L61.04,276.16L55.96,267.69L51.44,258.91L47.48,249.86L44.1,240.58L41.31,231.1L39.14,221.46L37.58,211.71L36.64,201.87L36.32,192" style="vector-effect: non-scaling-stroke; fill: none; stroke: rgb(227, 228, 230); stroke-opacity: 1; stroke-width: 0.7px; opacity: 1;"/></g><g class="points"/><g class="text"/></g><g class="trace scatter trace57675e" style="stroke-miterlimit: 2; opacity: 1;"><g class="fills"><g><path class="js-fill" d="M0.01,194.35L192,192L0.01,189.65Z" style="fill: rgb(0, 0, 0); fill-opacity: 1; stroke-width: 0;"/></g></g><g class="errorbars"/><g class="lines"><path class="js-line" d="M0.01,194.35L192,192L0.01,189.65" style="vector-effect: non-scaling-stroke; fill: none; stroke: rgb(255, 151, 255); stroke-opacity: 1; stroke-width: 0px; opacity: 1;"/></g><g class="points"/><g class="text"/></g><g class="trace scatter trace437469" style="stroke-miterlimit: 2; opacity: 1;"><g class="fills"><g><path class="js-fill" d="M43.42,70.39L192,192L46.44,66.8Z" style="fill: rgb(0, 0, 0); fill-opacity: 1; stroke-width: 0;"/></g></g><g class="errorbars"/><g class="lines"><path class="js-line" d="M43.42,70.39L192,192L46.44,66.8" style="vector-effect: non-scaling-stroke; fill: none; stroke: rgb(254, 203, 82); stroke-opacity: 1; stroke-width: 0px; opacity: 1;"/></g><g class="points"/><g class="text"/></g><g class="trace scatter trace161f79" style="stroke-miterlimit: 2; opacity: 1;"><g class="fills"><g><path class="js-fill" d="M156.35,3.34L192,192L160.97,2.52Z" style="fill: rgb(0, 0, 0); fill-opacity: 1; stroke-width: 0;"/></g></g><g class="errorbars"/><g class="lines"><path class="js-line" d="M156.35,3.34L192,192L160.97,2.52" style="vector-effect: non-scaling-stroke; fill: none; stroke: rgb(99, 110, 250); stroke-opacity: 1; stroke-width: 0px; opacity: 1;"/></g><g class="points"/><g class="text"/></g><g class="trace scatter traceea0e28" style="stroke-miterlimit: 2; opacity: 1;"><g class="fills"><g><path class="js-fill" d="M285.96,24.56L192,192L290.02,26.91Z" style="fill: rgb(0, 0, 0); fill-opacity: 1; stroke-width: 0;"/></g></g><g class="errorbars"/><g class="lines"><path class="js-line" d="M285.96,24.56L192,192L290.02,26.91" style="vector-effect: non-scaling-stroke; fill: none; stroke: rgb(239, 85, 59); stroke-opacity: 1; stroke-width: 0px; opacity: 1;"/></g><g class="points"/><g class="text"/></g><g class="trace scatter tracef46187" style="stroke-miterlimit: 2; opacity: 1;"><g class="fills"><g><path class="js-fill" d="M371.61,124.13L192,192L373.21,128.54Z" style="fill: rgb(0, 0, 0); fill-opacity: 1; stroke-width: 0;"/></g></g><g class="errorbars"/><g class="lines"><path class="js-line" d="M371.61,124.13L192,192L373.21,128.54" style="vector-effect: non-scaling-stroke; fill: none; stroke: rgb(0, 204, 150); stroke-opacity: 1; stroke-width: 0px; opacity: 1;"/></g><g class="points"/><g class="text"/></g><g class="trace scatter trace9add4c" style="stroke-miterlimit: 2; opacity: 1;"><g class="fills"><g><path class="js-fill" d="M373.21,255.46L192,192L371.61,259.87Z" style="fill: rgb(0, 0, 0); fill-opacity: 1; stroke-width: 0;"/></g></g><g class="errorbars"/><g class="lines"><path class="js-line" d="M373.21,255.46L192,192L371.61,259.87" style="vector-effect: non-scaling-stroke; fill: none; stroke: rgb(171, 99, 250); stroke-opacity: 1; stroke-width: 0px; opacity: 1;"/></g><g class="points"/><g class="text"/></g><g class="trace scatter trace6336d3" style="stroke-miterlimit: 2; opacity: 1;"><g class="fills"><g><path class="js-fill" d="M290.02,357.09L192,192L285.96,359.44Z" style="fill: rgb(0, 0, 0); fill-opacity: 1; stroke-width: 0;"/></g></g><g class="errorbars"/><g class="lines"><path class="js-line" d="M290.02,357.09L192,192L285.96,359.44" style="vector-effect: non-scaling-stroke; fill: none; stroke: rgb(255, 161, 90); stroke-opacity: 1; stroke-width: 0px; opacity: 1;"/></g><g class="points"/><g class="text"/></g><g class="trace scatter trace41d4a8" style="stroke-miterlimit: 2; opacity: 1;"><g class="fills"><g><path class="js-fill" d="M160.97,381.48L192,192L156.35,380.66Z" style="fill: rgb(0, 0, 0); fill-opacity: 1; stroke-width: 0;"/></g></g><g class="errorbars"/><g class="lines"><path class="js-line" d="M160.97,381.48L192,192L156.35,380.66" style="vector-effect: non-scaling-stroke; fill: none; stroke: rgb(25, 211, 243); stroke-opacity: 1; stroke-width: 0px; opacity: 1;"/></g><g class="points"/><g class="text"/></g><g class="trace scatter trace48467d" style="stroke-miterlimit: 2; opacity: 1;"><g class="fills"><g><path class="js-fill" d="M46.44,317.2L192,192L43.42,313.61Z" style="fill: rgb(0, 0, 0); fill-opacity: 1; stroke-width: 0;"/></g></g><g class="errorbars"/><g class="lines"><path class="js-line" d="M46.44,317.2L192,192L43.42,313.61" style="vector-effect: non-scaling-stroke; fill: none; stroke: rgb(255, 102, 146); stroke-opacity: 1; stroke-width: 0px; opacity: 1;"/></g><g class="points"/><g class="text"/></g><g class="trace scatter tracea3f239" style="stroke-miterlimit: 2; opacity: 1;"><g class="fills"/><g class="errorbars"/><g class="lines"><path class="js-line" d="M74.17,192L74.17,191.58L74.18,191.17L74.18,190.75L74.19,190.34L74.19,189.92L74.2,189.51L74.21,189.09L74.22,188.68L74.23,188.26L74.25,187.85L74.26,187.43L74.28,187.02L74.3,186.6L74.32,186.19L74.34,185.77L74.36,185.36L74.39,184.94L74.41,184.53L74.44,184.11L74.47,183.7L74.5,183.28L74.53,182.87L74.56,182.46L74.6,182.04L74.63,181.63L74.67,181.21L74.71,180.8L74.75,180.39L74.79,179.97L74.83,179.56L74.88,179.15L74.92,178.73L74.97,178.32L75.02,177.91L75.07,177.5L75.12,177.08L75.18,176.67L75.23,176.26L75.29,175.85L75.34,175.44L75.4,175.03L75.46,174.62L75.53,174.2L75.59,173.79L75.65,173.38L75.72,172.97L75.79,172.56L75.86,172.15L75.93,171.74L76,171.34L76.07,170.93L76.15,170.52L76.23,170.11L76.3,169.7L76.38,169.29L76.46,168.89L76.55,168.48L76.63,168.07L76.71,167.67L76.8,167.26L76.89,166.85L76.98,166.45L77.07,166.04L77.16,165.64L77.25,165.23L77.35,164.83L77.45,164.42L77.54,164.02L77.64,163.62L77.74,163.21L77.85,162.81L77.95,162.41L78.06,162.01L78.16,161.6L78.27,161.2L78.38,160.8L78.49,160.4L78.6,160L78.72,159.6L78.83,159.2L78.95,158.8L79.06,158.41L79.18,158.01L79.3,157.61L79.43,157.21L79.55,156.82L79.67,156.42L79.8,156.02L79.93,155.63L80.06,155.23L80.19,154.84L80.32,154.45L80.45,154.05L80.59,153.66L80.72,153.27L80.86,152.87L81,152.48L81.14,152.09L81.28,151.7" style="vector-effect: non-scaling-stroke; fill: none; stroke: rgb(51, 51, 51); stroke-opacity: 1; stroke-width: 4px; opacity: 1;"/></g><g class="points"/><g class="text"/></g><g class="trace scatter trace5a993f" style="stroke-miterlimit: 2; opacity: 1;"><g class="fills"/><g class="errorbars"/><g class="lines"><path class="js-line" d="M84.9,153.02L85.04,152.64L85.18,152.27L85.32,151.89L85.46,151.51L85.61,151.14L85.75,150.76L85.9,150.39L86.05,150.02L86.19,149.64L86.34,149.27L86.5,148.9L86.65,148.53L86.8,148.15L86.96,147.78L87.11,147.41L87.27,147.04L87.43,146.67L87.59,146.31L87.75,145.94L87.92,145.57L88.08,145.2L88.25,144.84L88.41,144.47L88.58,144.11L88.75,143.74L88.92,143.38L89.09,143.02L89.27,142.65L89.44,142.29L89.62,141.93L89.8,141.57L89.97,141.21L90.15,140.85L90.33,140.49L90.52,140.13L90.7,139.78L90.88,139.42L91.07,139.06L91.26,138.71L91.45,138.35L91.64,138L91.83,137.65L92.02,137.29L92.21,136.94L92.41,136.59L92.6,136.24L92.8,135.89L93,135.54L93.2,135.19L93.4,134.84L93.6,134.49L93.81,134.15L94.01,133.8L94.22,133.46L94.42,133.11L94.63,132.77L94.84,132.43L95.05,132.08L95.26,131.74L95.48,131.4L95.69,131.06L95.91,130.72L96.12,130.38L96.34,130.05L96.56,129.71L96.78,129.37L97,129.04L97.22,128.7L97.45,128.37L97.67,128.04L97.9,127.7L98.13,127.37L98.35,127.04L98.58,126.71L98.82,126.38L99.05,126.06L99.28,125.73L99.51,125.4L99.75,125.08L99.99,124.75L100.22,124.43L100.46,124.1L100.7,123.78L100.94,123.46L101.19,123.14L101.43,122.82L101.67,122.5L101.92,122.18L102.17,121.87L102.41,121.55L102.66,121.23L102.91,120.92L103.16,120.61L103.42,120.29L103.67,119.98L103.92,119.67L104.18,119.36L104.44,119.05L104.69,118.74" style="vector-effect: non-scaling-stroke; fill: none; stroke: rgb(102, 102, 102); stroke-opacity: 1; stroke-width: 4px; opacity: 1; stroke-dasharray: 2px, 2px;"/></g><g class="points"/><g class="text"/></g><g class="trace scatter traced76cc5" style="stroke-miterlimit: 2; opacity: 1;"><g class="fills"/><g class="errorbars"/><g class="lines"><path class="js-line" d="M65.21,192L65.21,191.11L65.22,190.21L65.24,189.32L65.26,188.42L65.29,187.53L65.32,186.64L65.37,185.74L65.41,184.85L65.47,183.96L65.53,183.07L65.59,182.17L65.66,181.28L65.74,180.39L65.83,179.5L65.92,178.61L66.02,177.72L66.12,176.84L66.23,175.95L66.35,175.06L66.47,174.18L66.6,173.29L66.73,172.41L66.87,171.53L67.02,170.64L67.18,169.76L67.34,168.88L67.5,168L67.67,167.13L67.85,166.25L68.04,165.38L68.23,164.5L68.43,163.63L68.63,162.76L68.84,161.89L69.05,161.02L69.27,160.16L69.5,159.29L69.74,158.43L69.98,157.57L70.22,156.71L70.47,155.85L70.73,154.99L71,154.14L71.27,153.29L71.54,152.44L71.82,151.59L72.11,150.74L72.4,149.9L72.7,149.06L73.01,148.22L73.32,147.38L73.64,146.54L73.96,145.71L74.29,144.88L74.63,144.05L74.97,143.22L75.32,142.4L75.67,141.58L76.03,140.76L76.39,139.94L76.76,139.13L77.14,138.32L77.52,137.51L77.91,136.7L78.3,135.9L78.7,135.1L79.1,134.3L79.51,133.5L79.93,132.71L80.35,131.92L80.77,131.14L81.21,130.36L81.64,129.58L82.09,128.8L82.53,128.03L82.99,127.26L83.45,126.49L83.91,125.72L84.38,124.96L84.86,124.21L85.34,123.45L85.82,122.7L86.32,121.96L86.81,121.21L87.31,120.47L87.82,119.74L88.33,119L88.85,118.27L89.37,117.55L89.9,116.83L90.43,116.11L90.97,115.39L91.51,114.68L92.06,113.98L92.61,113.27L93.17,112.57L93.73,111.88L94.3,111.19L94.87,110.5" style="vector-effect: non-scaling-stroke; fill: none; stroke: rgb(170, 170, 170); stroke-opacity: 1; stroke-width: 4px; opacity: 1;"/></g><g class="points"/><g class="text"/></g><g class="trace scatter traceb27903" style="stroke-miterlimit: 2; opacity: 1;"><g class="fills"/><g class="errorbars"/><g class="lines"><path class="js-line" d="M74.24,93.19L74.94,92.36L75.65,91.54L76.36,90.72L77.08,89.91L77.8,89.1L78.53,88.3L79.26,87.5L80,86.71L80.75,85.92L81.5,85.14L82.25,84.36L83.01,83.59L83.78,82.82L84.55,82.06L85.33,81.31L86.12,80.56L86.9,79.81L87.7,79.08L88.5,78.34L89.3,77.62L90.11,76.9L90.92,76.18L91.74,75.47L92.57,74.77L93.4,74.07L94.23,73.38L95.07,72.69L95.91,72.01L96.76,71.33L97.62,70.66L98.47,70L99.34,69.35L100.2,68.7L101.07,68.05L101.95,67.41L102.83,66.78L103.72,66.16L104.61,65.54L105.5,64.92L106.4,64.32L107.3,63.72L108.21,63.12L109.12,62.53L110.03,61.95L110.95,61.38L111.88,60.81L112.8,60.25L113.73,59.69L114.67,59.14L115.61,58.6L116.55,58.07L117.5,57.54L118.45,57.02L119.4,56.5L120.36,55.99L121.32,55.49L122.28,55L123.25,54.51L124.22,54.03L125.2,53.55L126.18,53.08L127.16,52.62L128.14,52.17L129.13,51.72L130.12,51.28L131.11,50.85L132.11,50.42L133.11,50L134.11,49.59L135.12,49.19L136.13,48.79L137.14,48.4L138.15,48.02L139.17,47.64L140.19,47.27L141.21,46.91L142.23,46.56L143.26,46.21L144.29,45.87L145.32,45.54L146.36,45.21L147.39,44.89L148.43,44.58L149.47,44.28L150.51,43.98L151.56,43.69L152.61,43.41L153.66,43.14L154.71,42.87L155.76,42.61L156.81,42.36L157.87,42.11L158.93,41.88L159.99,41.65L161.05,41.43L162.11,41.21L163.17,41L164.24,40.8L165.31,40.61" style="vector-effect: non-scaling-stroke; fill: none; stroke: rgb(51, 51, 51); stroke-opacity: 1; stroke-width: 4px; opacity: 1;"/></g><g class="points"/><g class="text"/></g><g class="trace scatter trace514370" style="stroke-miterlimit: 2; opacity: 1;"><g class="fills"/><g class="errorbars"/><g class="lines"><path class="js-line" d="M54.72,76.81L55.54,75.85L56.36,74.89L57.19,73.93L58.03,72.99L58.87,72.04L59.72,71.11L60.57,70.18L61.44,69.25L62.31,68.34L63.18,67.43L64.06,66.52L64.95,65.62L65.84,64.73L66.75,63.84L67.65,62.96L68.57,62.09L69.48,61.22L70.41,60.36L71.34,59.51L72.28,58.66L73.22,57.82L74.17,56.98L75.13,56.16L76.09,55.33L77.05,54.52L78.03,53.71L79,52.91L79.99,52.12L80.98,51.33L81.97,50.55L82.97,49.78L83.98,49.02L84.99,48.26L86,47.51L87.03,46.76L88.05,46.03L89.08,45.3L90.12,44.58L91.16,43.86L92.21,43.15L93.26,42.45L94.32,41.76L95.38,41.08L96.45,40.4L97.52,39.73L98.6,39.07L99.68,38.41L100.76,37.76L101.85,37.12L102.95,36.49L104.05,35.87L105.15,35.25L106.26,34.64L107.37,34.04L108.48,33.45L109.6,32.86L110.73,32.29L111.86,31.72L112.99,31.16L114.13,30.6L115.27,30.06L116.41,29.52L117.56,28.99L118.71,28.47L119.86,27.96L121.02,27.45L122.18,26.96L123.35,26.47L124.52,25.99L125.69,25.52L126.87,25.05L128.05,24.6L129.23,24.15L130.41,23.71L131.6,23.28L132.79,22.86L133.99,22.45L135.18,22.04L136.38,21.65L137.59,21.26L138.79,20.88L140,20.51L141.21,20.15L142.42,19.79L143.64,19.45L144.86,19.11L146.08,18.78L147.3,18.46L148.52,18.15L149.75,17.85L150.98,17.56L152.21,17.27L153.45,16.99L154.68,16.73L155.92,16.47L157.16,16.22L158.4,15.98L159.64,15.74L160.88,15.52" style="vector-effect: non-scaling-stroke; fill: none; stroke: rgb(170, 170, 170); stroke-opacity: 1; stroke-width: 4px; opacity: 1;"/></g><g class="points"/><g class="text"/></g><g class="trace scatter trace3a5ef9" style="stroke-miterlimit: 2; opacity: 1;"><g class="fills"/><g class="errorbars"/><g class="lines"><path class="js-line" d="M119.44,131.12L119.88,130.61L120.31,130.1L120.75,129.6L121.19,129.1L121.64,128.6L122.09,128.1L122.54,127.61L122.99,127.12L123.45,126.64L123.91,126.16L124.38,125.68L124.85,125.2L125.32,124.73L125.8,124.26L126.28,123.8L126.76,123.34L127.25,122.88L127.74,122.42L128.23,121.97L128.72,121.52L129.22,121.08L129.72,120.64L130.23,120.2L130.74,119.77L131.25,119.34L131.76,118.91L132.28,118.49L132.8,118.07L133.32,117.65L133.85,117.24L134.37,116.83L134.91,116.43L135.44,116.03L135.98,115.63L136.52,115.24L137.06,114.85L137.61,114.46L138.15,114.08L138.7,113.7L139.26,113.33L139.81,112.96L140.37,112.59L140.93,112.23L141.5,111.87L142.06,111.52L142.63,111.17L143.2,110.82L143.78,110.48L144.35,110.14L144.93,109.81L145.51,109.48L146.1,109.15L146.68,108.83L147.27,108.51L147.86,108.2L148.45,107.89L149.05,107.59L149.64,107.29L150.24,106.99L150.84,106.7L151.44,106.41L152.05,106.12L152.65,105.85L153.26,105.57L153.87,105.3L154.49,105.03L155.1,104.77L155.72,104.51L156.33,104.26L156.95,104.01L157.57,103.76L158.2,103.52L158.82,103.29L159.45,103.06L160.08,102.83L160.71,102.61L161.34,102.39L161.97,102.17L162.6,101.96L163.24,101.76L163.88,101.56L164.52,101.36L165.16,101.17L165.8,100.98L166.44,100.8L167.08,100.62L167.73,100.45L168.37,100.28L169.02,100.12L169.67,99.96L170.32,99.8L170.97,99.65L171.62,99.5L172.28,99.36L172.93,99.23L173.58,99.09L174.24,98.97L174.9,98.84L175.55,98.73" style="vector-effect: non-scaling-stroke; fill: none; stroke: rgb(102, 102, 102); stroke-opacity: 1; stroke-width: 4px; opacity: 1; stroke-dasharray: 2px, 2px;"/></g><g class="points"/><g class="text"/></g><g class="trace scatter tracec2b3d7" style="stroke-miterlimit: 2; opacity: 1;"><g class="fills"/><g class="errorbars"/><g class="lines"><path class="js-line" d="M189.06,175.33L189.18,175.31L189.3,175.29L189.41,175.28L189.53,175.26L189.65,175.24L189.77,175.22L189.89,175.21L190.01,175.19L190.12,175.18L190.24,175.17L190.36,175.16L190.48,175.14L190.6,175.13L190.72,175.12L190.84,175.12L190.96,175.11L191.08,175.1L191.19,175.1L191.31,175.09L191.43,175.09L191.55,175.08L191.67,175.08L191.79,175.08L191.91,175.08L192.03,175.08L192.15,175.08L192.27,175.08L192.39,175.08L192.51,175.08L192.63,175.09L192.75,175.09L192.86,175.1L192.98,175.11L193.1,175.11L193.22,175.12L193.34,175.13L193.46,175.14L193.58,175.15L193.7,175.16L193.82,175.17L193.94,175.19L194.05,175.2L194.17,175.22L194.29,175.23L194.41,175.25L194.53,175.27L194.64,175.28L194.76,175.3L194.88,175.32L195,175.34L195.11,175.37L195.23,175.39L195.35,175.41L195.47,175.44L195.58,175.46L195.7,175.49L195.82,175.51L195.93,175.54L196.05,175.57L196.16,175.6L196.28,175.63L196.39,175.66L196.51,175.69L196.62,175.72L196.74,175.75L196.85,175.79L196.97,175.82L197.08,175.86L197.2,175.89L197.31,175.93L197.42,175.97L197.54,176.01L197.65,176.05L197.76,176.09L197.87,176.13L197.98,176.17L198.1,176.21L198.21,176.26L198.32,176.3L198.43,176.34L198.54,176.39L198.65,176.44L198.76,176.48L198.87,176.53L198.98,176.58L199.08,176.63L199.19,176.68L199.3,176.73L199.41,176.78L199.52,176.84L199.62,176.89L199.73,176.94L199.83,177L199.94,177.05L200.05,177.11L200.15,177.17L200.25,177.23L200.36,177.28L200.46,177.34" style="vector-effect: non-scaling-stroke; fill: none; stroke: rgb(51, 51, 51); stroke-opacity: 1; stroke-width: 4px; opacity: 1;"/></g><g class="points"/><g class="text"/></g><g class="trace scatter trace5d4031" style="stroke-miterlimit: 2; opacity: 1;"><g class="fills"/><g class="errorbars"/><g class="lines"><path class="js-line" d="M189.83,179.7L189.92,179.68L190,179.67L190.09,179.66L190.18,179.64L190.27,179.63L190.35,179.62L190.44,179.61L190.53,179.6L190.62,179.59L190.7,179.58L190.79,179.57L190.88,179.56L190.97,179.55L191.05,179.54L191.14,179.54L191.23,179.53L191.32,179.53L191.41,179.52L191.49,179.52L191.58,179.52L191.67,179.51L191.76,179.51L191.85,179.51L191.93,179.51L192.02,179.51L192.11,179.51L192.2,179.51L192.29,179.51L192.37,179.51L192.46,179.52L192.55,179.52L192.64,179.53L192.73,179.53L192.81,179.54L192.9,179.54L192.99,179.55L193.08,179.56L193.17,179.56L193.25,179.57L193.34,179.58L193.43,179.59L193.52,179.6L193.6,179.61L193.69,179.62L193.78,179.64L193.86,179.65L193.95,179.66L194.04,179.68L194.13,179.69L194.21,179.71L194.3,179.72L194.39,179.74L194.47,179.76L194.56,179.77L194.64,179.79L194.73,179.81L194.82,179.83L194.9,179.85L194.99,179.87L195.07,179.89L195.16,179.91L195.24,179.94L195.33,179.96L195.41,179.98L195.5,180.01L195.58,180.03L195.67,180.06L195.75,180.09L195.83,180.11L195.92,180.14L196,180.17L196.09,180.2L196.17,180.22L196.25,180.25L196.33,180.28L196.42,180.32L196.5,180.35L196.58,180.38L196.66,180.41L196.74,180.44L196.83,180.48L196.91,180.51L196.99,180.55L197.07,180.58L197.15,180.62L197.23,180.66L197.31,180.69L197.39,180.73L197.47,180.77L197.55,180.81L197.63,180.85L197.7,180.89L197.78,180.93L197.86,180.97L197.94,181.01L198.02,181.05L198.09,181.1L198.17,181.14L198.25,181.18" style="vector-effect: non-scaling-stroke; fill: none; stroke: rgb(170, 170, 170); stroke-opacity: 1; stroke-width: 4px; opacity: 1;"/></g><g class="points"/><g class="text"/></g><g class="trace scatter trace3932db" style="stroke-miterlimit: 2; opacity: 1;"><g class="fills"/><g class="errorbars"/><g class="lines"><path class="js-line" d="M183.87,145.87L184.19,145.81L184.52,145.76L184.84,145.71L185.17,145.66L185.5,145.61L185.82,145.57L186.15,145.52L186.48,145.48L186.81,145.45L187.14,145.41L187.47,145.38L187.79,145.35L188.12,145.32L188.45,145.29L188.78,145.27L189.11,145.25L189.44,145.23L189.77,145.21L190.1,145.2L190.43,145.18L190.76,145.17L191.09,145.17L191.42,145.16L191.75,145.16L192.08,145.16L192.41,145.16L192.74,145.16L193.07,145.17L193.4,145.18L193.73,145.19L194.06,145.2L194.39,145.22L194.72,145.24L195.05,145.26L195.38,145.28L195.71,145.31L196.04,145.33L196.37,145.36L196.7,145.39L197.03,145.43L197.36,145.47L197.68,145.5L198.01,145.55L198.34,145.59L198.67,145.63L198.99,145.68L199.32,145.73L199.65,145.79L199.97,145.84L200.3,145.9L200.62,145.96L200.95,146.02L201.27,146.08L201.59,146.15L201.92,146.22L202.24,146.29L202.56,146.36L202.88,146.44L203.2,146.52L203.52,146.6L203.84,146.68L204.16,146.76L204.48,146.85L204.8,146.94L205.12,147.03L205.43,147.13L205.75,147.22L206.07,147.32L206.38,147.42L206.69,147.52L207.01,147.63L207.32,147.73L207.63,147.84L207.94,147.95L208.25,148.07L208.56,148.18L208.87,148.3L209.18,148.42L209.49,148.54L209.79,148.67L210.1,148.79L210.4,148.92L210.7,149.05L211.01,149.19L211.31,149.32L211.61,149.46L211.91,149.6L212.21,149.74L212.5,149.88L212.8,150.03L213.1,150.18L213.39,150.33L213.68,150.48L213.98,150.63L214.27,150.79L214.56,150.95L214.85,151.11L215.13,151.27L215.42,151.43" style="vector-effect: non-scaling-stroke; fill: none; stroke: rgb(102, 102, 102); stroke-opacity: 1; stroke-width: 4px; opacity: 1; stroke-dasharray: 2px, 2px;"/></g><g class="points"/><g class="text"/></g><g class="trace scatter trace343291" style="stroke-miterlimit: 2; opacity: 1;"><g class="fills"/><g class="errorbars"/><g class="lines"><path class="js-line" d="M228.5,128.78L228.94,129.04L229.39,129.31L229.83,129.57L230.27,129.84L230.7,130.11L231.14,130.39L231.57,130.66L232,130.94L232.43,131.23L232.86,131.51L233.29,131.8L233.71,132.1L234.13,132.39L234.55,132.69L234.97,132.99L235.38,133.3L235.8,133.6L236.21,133.91L236.61,134.23L237.02,134.54L237.43,134.86L237.83,135.18L238.23,135.51L238.62,135.84L239.02,136.17L239.41,136.5L239.8,136.83L240.19,137.17L240.57,137.51L240.96,137.86L241.34,138.2L241.72,138.55L242.09,138.91L242.47,139.26L242.84,139.62L243.2,139.98L243.57,140.34L243.93,140.7L244.29,141.07L244.65,141.44L245.01,141.81L245.36,142.19L245.71,142.57L246.06,142.95L246.4,143.33L246.74,143.71L247.08,144.1L247.42,144.49L247.75,144.88L248.08,145.28L248.41,145.67L248.74,146.07L249.06,146.47L249.38,146.88L249.69,147.28L250.01,147.69L250.32,148.1L250.63,148.51L250.93,148.93L251.23,149.35L251.53,149.76L251.83,150.18L252.12,150.61L252.41,151.03L252.7,151.46L252.99,151.89L253.27,152.32L253.55,152.75L253.82,153.19L254.09,153.62L254.36,154.06L254.63,154.5L254.89,154.95L255.15,155.39L255.41,155.84L255.66,156.29L255.91,156.74L256.16,157.19L256.4,157.64L256.64,158.1L256.88,158.55L257.11,159.01L257.35,159.47L257.57,159.93L257.8,160.4L258.02,160.86L258.24,161.33L258.45,161.79L258.66,162.26L258.87,162.73L259.08,163.21L259.28,163.68L259.48,164.16L259.67,164.63L259.86,165.11L260.05,165.59L260.23,166.07L260.41,166.55L260.59,167.03" style="vector-effect: non-scaling-stroke; fill: none; stroke: rgb(51, 51, 51); stroke-opacity: 1; stroke-width: 4px; opacity: 1;"/></g><g class="points"/><g class="text"/></g><g class="trace scatter traced790e6" style="stroke-miterlimit: 2; opacity: 1;"><g class="fills"/><g class="errorbars"/><g class="lines"><path class="js-line" d="M239.05,110.51L239.34,110.68L239.62,110.84L239.91,111.01L240.19,111.18L240.48,111.35L240.76,111.52L241.05,111.7L241.33,111.87L241.61,112.04L241.89,112.22L242.17,112.39L242.45,112.57L242.73,112.75L243.01,112.93L243.29,113.11L243.57,113.29L243.85,113.47L244.12,113.66L244.4,113.84L244.67,114.03L244.95,114.21L245.22,114.4L245.5,114.59L245.77,114.78L246.04,114.97L246.31,115.16L246.58,115.35L246.85,115.54L247.12,115.74L247.39,115.93L247.66,116.13L247.92,116.32L248.19,116.52L248.46,116.72L248.72,116.92L248.99,117.12L249.25,117.32L249.51,117.52L249.78,117.73L250.04,117.93L250.3,118.14L250.56,118.34L250.82,118.55L251.08,118.76L251.33,118.97L251.59,119.18L251.85,119.39L252.1,119.6L252.36,119.81L252.61,120.02L252.86,120.24L253.12,120.45L253.37,120.67L253.62,120.89L253.87,121.1L254.12,121.32L254.37,121.54L254.62,121.76L254.86,121.98L255.11,122.21L255.36,122.43L255.6,122.65L255.85,122.88L256.09,123.1L256.33,123.33L256.57,123.56L256.81,123.78L257.05,124.01L257.29,124.24L257.53,124.47L257.77,124.71L258.01,124.94L258.24,125.17L258.48,125.4L258.71,125.64L258.95,125.87L259.18,126.11L259.41,126.35L259.64,126.59L259.87,126.83L260.1,127.07L260.33,127.31L260.56,127.55L260.78,127.79L261.01,128.03L261.24,128.28L261.46,128.52L261.68,128.77L261.91,129.01L262.13,129.26L262.35,129.51L262.57,129.75L262.79,130L263.01,130.25L263.22,130.5L263.44,130.76L263.65,131.01L263.87,131.26L264.08,131.52" style="vector-effect: non-scaling-stroke; fill: none; stroke: rgb(170, 170, 170); stroke-opacity: 1; stroke-width: 4px; opacity: 1;"/></g><g class="points"/><g class="text"/></g><g class="trace scatter trace390698" style="stroke-miterlimit: 2; opacity: 1;"><g class="fills"/><g class="errorbars"/><g class="lines"><path class="js-line" d="M264.88,130.85L265.09,131.11L265.31,131.36L265.52,131.62L265.73,131.88L265.94,132.14L266.16,132.4L266.36,132.67L266.57,132.93L266.78,133.19L266.99,133.46L267.19,133.72L267.4,133.99L267.6,134.25L267.81,134.52L268.01,134.79L268.21,135.05L268.41,135.32L268.61,135.59L268.81,135.86L269.01,136.14L269.2,136.41L269.4,136.68L269.59,136.95L269.79,137.23L269.98,137.5L270.17,137.78L270.36,138.05L270.55,138.33L270.74,138.61L270.93,138.88L271.11,139.16L271.3,139.44L271.48,139.72L271.67,140L271.85,140.28L272.03,140.57L272.21,140.85L272.39,141.13L272.57,141.42L272.75,141.7L272.93,141.98L273.1,142.27L273.28,142.56L273.45,142.84L273.62,143.13L273.8,143.42L273.97,143.71L274.14,144L274.31,144.29L274.47,144.58L274.64,144.87L274.81,145.16L274.97,145.45L275.13,145.75L275.3,146.04L275.46,146.33L275.62,146.63L275.78,146.92L275.94,147.22L276.09,147.51L276.25,147.81L276.41,148.11L276.56,148.41L276.71,148.7L276.86,149L277.02,149.3L277.17,149.6L277.31,149.9L277.46,150.21L277.61,150.51L277.76,150.81L277.9,151.11L278.04,151.41L278.19,151.72L278.33,152.02L278.47,152.33L278.61,152.63L278.75,152.94L278.88,153.24L279.02,153.55L279.15,153.86L279.29,154.16L279.42,154.47L279.55,154.78L279.68,155.09L279.81,155.4L279.94,155.71L280.07,156.02L280.2,156.33L280.32,156.64L280.44,156.95L280.57,157.27L280.69,157.58L280.81,157.89L280.93,158.2L281.05,158.52L281.17,158.83L281.28,159.15L281.4,159.46" style="vector-effect: non-scaling-stroke; fill: none; stroke: rgb(102, 102, 102); stroke-opacity: 1; stroke-width: 4px; opacity: 1; stroke-dasharray: 2px, 2px;"/></g><g class="points"/><g class="text"/></g><g class="trace scatter traced01210" style="stroke-miterlimit: 2; opacity: 1;"><g class="fills"/><g class="errorbars"/><g class="lines"><path class="js-line" d="M264.05,165.78L264.23,166.29L264.41,166.8L264.58,167.31L264.76,167.82L264.93,168.33L265.09,168.85L265.25,169.36L265.41,169.88L265.56,170.4L265.71,170.92L265.86,171.44L266,171.96L266.14,172.48L266.28,173.01L266.41,173.53L266.54,174.06L266.67,174.58L266.79,175.11L266.9,175.64L267.02,176.17L267.13,176.69L267.23,177.22L267.34,177.76L267.43,178.29L267.53,178.82L267.62,179.35L267.71,179.89L267.79,180.42L267.87,180.95L267.95,181.49L268.02,182.03L268.09,182.56L268.15,183.1L268.21,183.64L268.27,184.17L268.32,184.71L268.37,185.25L268.42,185.79L268.46,186.33L268.5,186.87L268.53,187.41L268.56,187.95L268.59,188.49L268.61,189.03L268.63,189.57L268.65,190.11L268.66,190.65L268.67,191.19L268.67,191.73L268.67,192.27L268.67,192.81L268.66,193.35L268.65,193.89L268.63,194.43L268.61,194.97L268.59,195.51L268.56,196.05L268.53,196.59L268.5,197.13L268.46,197.67L268.42,198.21L268.37,198.75L268.32,199.29L268.27,199.83L268.21,200.36L268.15,200.9L268.09,201.44L268.02,201.97L267.95,202.51L267.87,203.05L267.79,203.58L267.71,204.11L267.62,204.65L267.53,205.18L267.43,205.71L267.34,206.24L267.23,206.78L267.13,207.31L267.02,207.83L266.9,208.36L266.79,208.89L266.67,209.42L266.54,209.94L266.41,210.47L266.28,210.99L266.14,211.52L266,212.04L265.86,212.56L265.71,213.08L265.56,213.6L265.41,214.12L265.25,214.64L265.09,215.15L264.93,215.67L264.76,216.18L264.58,216.69L264.41,217.2L264.23,217.71L264.05,218.22" style="vector-effect: non-scaling-stroke; fill: none; stroke: rgb(51, 51, 51); stroke-opacity: 1; stroke-width: 4px; opacity: 1;"/></g><g class="points"/><g class="text"/></g><g class="trace scatter tracec1781c" style="stroke-miterlimit: 2; opacity: 1;"><g class="fills"/><g class="errorbars"/><g class="lines"><path class="js-line" d="M276.73,161.16L276.94,161.76L277.15,162.36L277.36,162.96L277.56,163.56L277.76,164.17L277.96,164.77L278.15,165.38L278.33,165.99L278.51,166.6L278.69,167.21L278.86,167.82L279.03,168.43L279.2,169.05L279.36,169.66L279.51,170.28L279.66,170.9L279.81,171.52L279.95,172.14L280.09,172.76L280.22,173.38L280.35,174L280.48,174.62L280.6,175.25L280.71,175.87L280.82,176.5L280.93,177.13L281.03,177.75L281.13,178.38L281.23,179.01L281.31,179.64L281.4,180.27L281.48,180.9L281.56,181.53L281.63,182.16L281.7,182.8L281.76,183.43L281.82,184.06L281.87,184.7L281.92,185.33L281.96,185.96L282,186.6L282.04,187.23L282.07,187.87L282.1,188.5L282.12,189.14L282.14,189.77L282.15,190.41L282.16,191.05L282.17,191.68L282.17,192.32L282.16,192.95L282.15,193.59L282.14,194.23L282.12,194.86L282.1,195.5L282.07,196.13L282.04,196.77L282,197.4L281.96,198.04L281.92,198.67L281.87,199.3L281.82,199.94L281.76,200.57L281.7,201.2L281.63,201.84L281.56,202.47L281.48,203.1L281.4,203.73L281.31,204.36L281.23,204.99L281.13,205.62L281.03,206.25L280.93,206.87L280.82,207.5L280.71,208.13L280.6,208.75L280.48,209.38L280.35,210L280.22,210.62L280.09,211.24L279.95,211.86L279.81,212.48L279.66,213.1L279.51,213.72L279.36,214.34L279.2,214.95L279.03,215.57L278.86,216.18L278.69,216.79L278.51,217.4L278.33,218.01L278.15,218.62L277.96,219.23L277.76,219.83L277.56,220.44L277.36,221.04L277.15,221.64L276.94,222.24L276.73,222.84" style="vector-effect: non-scaling-stroke; fill: none; stroke: rgb(170, 170, 170); stroke-opacity: 1; stroke-width: 4px; opacity: 1;"/></g><g class="points"/><g class="text"/></g><g class="trace scatter traceb0a232" style="stroke-miterlimit: 2; opacity: 1;"><g class="fills"/><g class="errorbars"/><g class="lines"><path class="js-line" d="M231.68,177.56L231.78,177.84L231.88,178.12L231.98,178.4L232.07,178.68L232.16,178.97L232.25,179.25L232.34,179.53L232.43,179.82L232.52,180.1L232.6,180.39L232.68,180.68L232.76,180.96L232.83,181.25L232.91,181.54L232.98,181.83L233.05,182.12L233.12,182.41L233.19,182.7L233.25,182.99L233.32,183.28L233.38,183.57L233.43,183.86L233.49,184.15L233.54,184.45L233.6,184.74L233.65,185.03L233.7,185.33L233.74,185.62L233.79,185.92L233.83,186.21L233.87,186.51L233.9,186.8L233.94,187.1L233.97,187.39L234.01,187.69L234.03,187.99L234.06,188.28L234.09,188.58L234.11,188.88L234.13,189.17L234.15,189.47L234.17,189.77L234.18,190.07L234.19,190.36L234.2,190.66L234.21,190.96L234.22,191.26L234.22,191.55L234.23,191.85L234.23,192.15L234.22,192.45L234.22,192.74L234.21,193.04L234.2,193.34L234.19,193.64L234.18,193.93L234.17,194.23L234.15,194.53L234.13,194.83L234.11,195.12L234.09,195.42L234.06,195.72L234.03,196.01L234.01,196.31L233.97,196.61L233.94,196.9L233.9,197.2L233.87,197.49L233.83,197.79L233.79,198.08L233.74,198.38L233.7,198.67L233.65,198.97L233.6,199.26L233.54,199.55L233.49,199.85L233.43,200.14L233.38,200.43L233.32,200.72L233.25,201.01L233.19,201.3L233.12,201.59L233.05,201.88L232.98,202.17L232.91,202.46L232.83,202.75L232.76,203.04L232.68,203.32L232.6,203.61L232.52,203.9L232.43,204.18L232.34,204.47L232.25,204.75L232.16,205.03L232.07,205.32L231.98,205.6L231.88,205.88L231.78,206.16L231.68,206.44" style="vector-effect: non-scaling-stroke; fill: none; stroke: rgb(102, 102, 102); stroke-opacity: 1; stroke-width: 4px; opacity: 1; stroke-dasharray: 2px, 2px;"/></g><g class="points"/><g class="text"/></g><g class="trace scatter trace4e136f" style="stroke-miterlimit: 2; opacity: 1;"><g class="fills"/><g class="errorbars"/><g class="lines"><path class="js-line" d="M311.58,235.52L311.27,236.37L310.96,237.21L310.63,238.04L310.31,238.88L309.97,239.71L309.63,240.54L309.29,241.37L308.94,242.2L308.58,243.02L308.22,243.84L307.85,244.66L307.47,245.48L307.09,246.29L306.71,247.1L306.32,247.91L305.92,248.71L305.52,249.51L305.11,250.31L304.7,251.11L304.28,251.9L303.85,252.69L303.42,253.48L302.98,254.26L302.54,255.04L302.09,255.82L301.64,256.6L301.18,257.37L300.72,258.14L300.25,258.9L299.78,259.66L299.3,260.42L298.81,261.18L298.32,261.93L297.82,262.68L297.32,263.42L296.82,264.16L296.31,264.9L295.79,265.63L295.27,266.36L294.74,267.09L294.21,267.81L293.67,268.53L293.13,269.25L292.58,269.96L292.03,270.66L291.47,271.37L290.91,272.07L290.34,272.76L289.77,273.45L289.19,274.14L288.61,274.82L288.03,275.5L287.43,276.18L286.84,276.85L286.24,277.52L285.63,278.18L285.02,278.84L284.41,279.49L283.79,280.14L283.17,280.79L282.54,281.43L281.9,282.06L281.27,282.69L280.62,283.32L279.98,283.94L279.33,284.56L278.67,285.18L278.01,285.78L277.35,286.39L276.68,286.99L276.01,287.58L275.33,288.17L274.65,288.76L273.97,289.34L273.28,289.91L272.59,290.49L271.89,291.05L271.19,291.61L270.49,292.17L269.78,292.72L269.07,293.27L268.35,293.81L267.63,294.34L266.91,294.87L266.18,295.4L265.45,295.92L264.71,296.43L263.98,296.94L263.23,297.45L262.49,297.95L261.74,298.44L260.99,298.93L260.23,299.42L259.47,299.89L258.71,300.37L257.94,300.84L257.18,301.3L256.4,301.76L255.63,302.21" style="vector-effect: non-scaling-stroke; fill: none; stroke: rgb(51, 51, 51); stroke-opacity: 1; stroke-width: 4px; opacity: 1;"/></g><g class="points"/><g class="text"/></g><g class="trace scatter trace044f11" style="stroke-miterlimit: 2; opacity: 1;"><g class="fills"/><g class="errorbars"/><g class="lines"><path class="js-line" d="M368.5,256.24L368.04,257.48L367.58,258.72L367.1,259.96L366.62,261.19L366.13,262.42L365.62,263.65L365.11,264.87L364.6,266.09L364.07,267.31L363.53,268.52L362.99,269.72L362.44,270.93L361.88,272.13L361.31,273.32L360.73,274.52L360.14,275.7L359.55,276.89L358.95,278.07L358.34,279.24L357.72,280.41L357.09,281.58L356.45,282.74L355.81,283.9L355.16,285.05L354.5,286.2L353.83,287.34L353.15,288.48L352.47,289.62L351.78,290.75L351.08,291.87L350.37,292.99L349.65,294.1L348.93,295.21L348.2,296.32L347.46,297.42L346.71,298.51L345.95,299.6L345.19,300.68L344.42,301.76L343.64,302.83L342.86,303.9L342.06,304.96L341.26,306.01L340.46,307.06L339.64,308.11L338.82,309.15L337.99,310.18L337.15,311.2L336.31,312.22L335.46,313.24L334.6,314.25L333.73,315.25L332.86,316.25L331.98,317.24L331.09,318.22L330.2,319.2L329.3,320.17L328.39,321.14L327.48,322.09L326.56,323.05L325.63,323.99L324.7,324.93L323.76,325.86L322.81,326.79L321.85,327.71L320.89,328.62L319.93,329.53L318.95,330.42L317.98,331.32L316.99,332.2L316,333.08L315,333.95L314,334.81L312.99,335.67L311.97,336.52L310.95,337.36L309.92,338.2L308.89,339.03L307.85,339.85L306.8,340.66L305.75,341.47L304.69,342.26L303.63,343.05L302.56,343.84L301.49,344.61L300.41,345.38L299.33,346.14L298.24,346.9L297.14,347.64L296.04,348.38L294.94,349.11L293.83,349.83L292.71,350.54L291.59,351.25L290.46,351.95L289.33,352.64L288.2,353.32L287.06,354L285.91,354.66" style="vector-effect: non-scaling-stroke; fill: none; stroke: rgb(170, 170, 170); stroke-opacity: 1; stroke-width: 4px; opacity: 1;"/></g><g class="points"/><g class="text"/></g><g class="trace scatter trace36d63d" style="stroke-miterlimit: 2; opacity: 1;"><g class="fills"/><g class="errorbars"/><g class="lines"><path class="js-line" d="M318.92,238.2L318.6,239.09L318.26,239.98L317.92,240.87L317.57,241.76L317.22,242.64L316.86,243.52L316.49,244.4L316.12,245.28L315.74,246.15L315.35,247.02L314.96,247.89L314.57,248.76L314.16,249.62L313.75,250.48L313.34,251.34L312.92,252.19L312.49,253.04L312.06,253.89L311.62,254.74L311.17,255.58L310.72,256.42L310.26,257.25L309.8,258.09L309.33,258.92L308.85,259.74L308.37,260.56L307.89,261.38L307.4,262.2L306.9,263.01L306.39,263.82L305.89,264.62L305.37,265.42L304.85,266.22L304.32,267.02L303.79,267.81L303.25,268.59L302.71,269.38L302.16,270.15L301.61,270.93L301.05,271.7L300.48,272.47L299.91,273.23L299.34,273.99L298.76,274.74L298.17,275.49L297.58,276.24L296.98,276.98L296.38,277.72L295.78,278.46L295.16,279.19L294.55,279.91L293.92,280.63L293.3,281.35L292.66,282.06L292.03,282.77L291.38,283.47L290.74,284.17L290.08,284.86L289.43,285.55L288.76,286.24L288.1,286.92L287.42,287.59L286.75,288.26L286.07,288.93L285.38,289.59L284.69,290.25L284,290.9L283.3,291.54L282.59,292.19L281.88,292.82L281.17,293.45L280.45,294.08L279.73,294.7L279,295.32L278.27,295.93L277.54,296.53L276.8,297.13L276.06,297.73L275.31,298.32L274.56,298.9L273.8,299.48L273.04,300.06L272.28,300.63L271.51,301.19L270.74,301.75L269.96,302.3L269.18,302.85L268.4,303.39L267.61,303.92L266.82,304.46L266.02,304.98L265.22,305.5L264.42,306.01L263.62,306.52L262.81,307.02L261.99,307.52L261.18,308.01L260.36,308.5L259.54,308.97" style="vector-effect: non-scaling-stroke; fill: none; stroke: rgb(102, 102, 102); stroke-opacity: 1; stroke-width: 4px; opacity: 1; stroke-dasharray: 2px, 2px;"/></g><g class="points"/><g class="text"/></g><g class="trace scatter trace69abb2" style="stroke-miterlimit: 2; opacity: 1;"><g class="fills"/><g class="errorbars"/><g class="lines"><path class="js-line" d="M237.63,271.03L237.07,271.35L236.51,271.67L235.95,271.98L235.38,272.29L234.81,272.59L234.24,272.89L233.67,273.19L233.1,273.48L232.52,273.76L231.95,274.05L231.37,274.33L230.79,274.6L230.2,274.88L229.62,275.14L229.03,275.41L228.44,275.66L227.85,275.92L227.26,276.17L226.66,276.42L226.07,276.66L225.47,276.9L224.87,277.13L224.27,277.36L223.66,277.59L223.06,277.81L222.45,278.02L221.85,278.24L221.24,278.45L220.63,278.65L220.02,278.85L219.4,279.04L218.79,279.24L218.17,279.42L217.56,279.6L216.94,279.78L216.32,279.96L215.7,280.13L215.07,280.29L214.45,280.45L213.83,280.61L213.2,280.76L212.58,280.91L211.95,281.05L211.32,281.19L210.69,281.32L210.06,281.45L209.43,281.58L208.8,281.7L208.16,281.81L207.53,281.92L206.89,282.03L206.26,282.14L205.62,282.23L204.99,282.33L204.35,282.42L203.71,282.5L203.07,282.58L202.43,282.66L201.79,282.73L201.15,282.8L200.51,282.86L199.87,282.92L199.23,282.97L198.59,283.02L197.95,283.06L197.31,283.1L196.66,283.14L196.02,283.17L195.38,283.19L194.73,283.22L194.09,283.23L193.45,283.24L192.8,283.25L192.16,283.26L191.52,283.25L190.87,283.25L190.23,283.24L189.59,283.22L188.94,283.2L188.3,283.18L187.66,283.15L187.02,283.12L186.37,283.08L185.73,283.04L185.09,282.99L184.45,282.94L183.81,282.89L183.17,282.83L182.53,282.76L181.89,282.69L181.25,282.62L180.61,282.54L179.97,282.46L179.33,282.37L178.69,282.28L178.06,282.18L177.42,282.08L176.79,281.98L176.15,281.87" style="vector-effect: non-scaling-stroke; fill: none; stroke: rgb(51, 51, 51); stroke-opacity: 1; stroke-width: 4px; opacity: 1;"/></g><g class="points"/><g class="text"/></g><g class="trace scatter tracea5b05c" style="stroke-miterlimit: 2; opacity: 1;"><g class="fills"/><g class="errorbars"/><g class="lines"><path class="js-line" d="M265.72,319.69L264.82,320.2L263.91,320.71L263,321.22L262.09,321.72L261.17,322.21L260.25,322.69L259.33,323.17L258.4,323.64L257.47,324.11L256.54,324.56L255.6,325.02L254.66,325.46L253.72,325.9L252.78,326.33L251.83,326.76L250.87,327.17L249.92,327.59L248.96,327.99L248,328.39L247.04,328.78L246.07,329.17L245.1,329.54L244.13,329.92L243.16,330.28L242.18,330.64L241.2,330.99L240.22,331.33L239.24,331.67L238.25,332L237.26,332.32L236.27,332.64L235.28,332.94L234.29,333.25L233.29,333.54L232.29,333.83L231.29,334.11L230.29,334.38L229.28,334.65L228.27,334.91L227.27,335.16L226.25,335.41L225.24,335.64L224.23,335.87L223.21,336.1L222.2,336.31L221.18,336.52L220.16,336.73L219.14,336.92L218.11,337.11L217.09,337.29L216.07,337.46L215.04,337.63L214.01,337.79L212.98,337.94L211.95,338.08L210.92,338.22L209.89,338.35L208.86,338.47L207.83,338.59L206.79,338.7L205.76,338.8L204.72,338.89L203.68,338.98L202.65,339.05L201.61,339.13L200.57,339.19L199.53,339.25L198.5,339.3L197.46,339.34L196.42,339.37L195.38,339.4L194.34,339.42L193.3,339.43L192.26,339.44L191.22,339.44L190.18,339.43L189.14,339.41L188.1,339.39L187.06,339.36L186.02,339.32L184.98,339.27L183.95,339.22L182.91,339.16L181.87,339.09L180.83,339.02L179.8,338.93L178.76,338.84L177.73,338.75L176.69,338.64L175.66,338.53L174.63,338.41L173.59,338.29L172.56,338.15L171.53,338.01L170.5,337.86L169.47,337.71L168.45,337.55L167.42,337.38L166.4,337.2" style="vector-effect: non-scaling-stroke; fill: none; stroke: rgb(170, 170, 170); stroke-opacity: 1; stroke-width: 4px; opacity: 1;"/></g><g class="points"/><g class="text"/></g><g class="trace scatter trace233262" style="stroke-miterlimit: 2; opacity: 1;"><g class="fills"/><g class="errorbars"/><g class="lines"><path class="js-line" d="M245.65,284.92L244.99,285.3L244.33,285.67L243.67,286.03L243,286.4L242.34,286.75L241.67,287.11L241,287.45L240.32,287.8L239.65,288.13L238.97,288.47L238.29,288.8L237.6,289.12L236.92,289.44L236.23,289.75L235.54,290.06L234.84,290.37L234.15,290.67L233.45,290.96L232.75,291.25L232.05,291.54L231.35,291.82L230.64,292.09L229.94,292.36L229.23,292.63L228.52,292.89L227.81,293.14L227.09,293.39L226.38,293.64L225.66,293.88L224.94,294.11L224.22,294.34L223.5,294.57L222.77,294.79L222.05,295L221.32,295.21L220.59,295.41L219.86,295.61L219.13,295.81L218.4,296L217.66,296.18L216.93,296.36L216.19,296.53L215.45,296.7L214.71,296.86L213.97,297.02L213.23,297.17L212.49,297.32L211.75,297.46L211,297.6L210.26,297.73L209.51,297.86L208.77,297.98L208.02,298.09L207.27,298.2L206.52,298.31L205.77,298.41L205.02,298.5L204.27,298.59L203.52,298.67L202.76,298.75L202.01,298.83L201.26,298.89L200.5,298.96L199.75,299.01L198.99,299.07L198.24,299.11L197.48,299.15L196.73,299.19L195.97,299.22L195.22,299.25L194.46,299.27L193.7,299.28L192.95,299.29L192.19,299.29L191.43,299.29L190.68,299.29L189.92,299.27L189.16,299.26L188.41,299.23L187.65,299.21L186.89,299.17L186.14,299.13L185.38,299.09L184.63,299.04L183.87,298.99L183.12,298.93L182.37,298.86L181.61,298.79L180.86,298.71L180.11,298.63L179.36,298.55L178.61,298.45L177.85,298.36L177.11,298.25L176.36,298.15L175.61,298.03L174.86,297.92L174.11,297.79L173.37,297.66" style="vector-effect: non-scaling-stroke; fill: none; stroke: rgb(102, 102, 102); stroke-opacity: 1; stroke-width: 4px; opacity: 1; stroke-dasharray: 2px, 2px;"/></g><g class="points"/><g class="text"/></g><g class="trace scatter traced18741" style="stroke-miterlimit: 2; opacity: 1;"><g class="fills"/><g class="errorbars"/><g class="lines"><path class="js-line" d="M184.01,237.3L183.85,237.27L183.69,237.24L183.53,237.21L183.37,237.18L183.22,237.15L183.06,237.12L182.9,237.09L182.74,237.06L182.58,237.02L182.42,236.99L182.26,236.96L182.1,236.92L181.95,236.89L181.79,236.85L181.63,236.81L181.47,236.78L181.31,236.74L181.16,236.7L181,236.66L180.84,236.62L180.68,236.59L180.53,236.55L180.37,236.5L180.21,236.46L180.06,236.42L179.9,236.38L179.74,236.34L179.59,236.29L179.43,236.25L179.27,236.2L179.12,236.16L178.96,236.11L178.81,236.07L178.65,236.02L178.5,235.97L178.34,235.92L178.19,235.88L178.03,235.83L177.88,235.78L177.72,235.73L177.57,235.68L177.42,235.63L177.26,235.57L177.11,235.52L176.96,235.47L176.8,235.42L176.65,235.36L176.5,235.31L176.34,235.25L176.19,235.2L176.04,235.14L175.89,235.08L175.74,235.03L175.58,234.97L175.43,234.91L175.28,234.85L175.13,234.79L174.98,234.73L174.83,234.67L174.68,234.61L174.53,234.55L174.38,234.49L174.23,234.43L174.08,234.36L173.93,234.3L173.78,234.24L173.63,234.17L173.48,234.11L173.33,234.04L173.19,233.98L173.04,233.91L172.89,233.84L172.74,233.77L172.6,233.71L172.45,233.64L172.3,233.57L172.16,233.5L172.01,233.43L171.86,233.36L171.72,233.29L171.57,233.21L171.43,233.14L171.28,233.07L171.14,233L170.99,232.92L170.85,232.85L170.71,232.77L170.56,232.7L170.42,232.62L170.28,232.55L170.13,232.47L169.99,232.39L169.85,232.31L169.71,232.24L169.56,232.16L169.42,232.08L169.28,232L169.14,231.92L169,231.84" style="vector-effect: non-scaling-stroke; fill: none; stroke: rgb(51, 51, 51); stroke-opacity: 1; stroke-width: 4px; opacity: 1;"/></g><g class="points"/><g class="text"/></g><g class="trace scatter tracea6ffd4" style="stroke-miterlimit: 2; opacity: 1;"><g class="fills"/><g class="errorbars"/><g class="lines"><path class="js-line" d="M169.69,230.64L169.56,230.56L169.42,230.48L169.29,230.4L169.15,230.32L169.02,230.24L168.88,230.16L168.75,230.07L168.61,229.99L168.48,229.91L168.35,229.83L168.21,229.74L168.08,229.66L167.95,229.57L167.81,229.49L167.68,229.4L167.55,229.32L167.42,229.23L167.29,229.14L167.16,229.06L167.03,228.97L166.9,228.88L166.77,228.79L166.64,228.7L166.51,228.61L166.38,228.52L166.25,228.43L166.12,228.34L165.99,228.25L165.87,228.16L165.74,228.06L165.61,227.97L165.49,227.88L165.36,227.79L165.23,227.69L165.11,227.6L164.98,227.5L164.86,227.41L164.73,227.31L164.61,227.21L164.48,227.12L164.36,227.02L164.24,226.92L164.11,226.82L163.99,226.73L163.87,226.63L163.75,226.53L163.63,226.43L163.5,226.33L163.38,226.23L163.26,226.12L163.14,226.02L163.02,225.92L162.9,225.82L162.78,225.72L162.67,225.61L162.55,225.51L162.43,225.41L162.31,225.3L162.19,225.2L162.08,225.09L161.96,224.98L161.85,224.88L161.73,224.77L161.61,224.67L161.5,224.56L161.38,224.45L161.27,224.34L161.16,224.23L161.04,224.12L160.93,224.02L160.82,223.91L160.71,223.8L160.59,223.68L160.48,223.57L160.37,223.46L160.26,223.35L160.15,223.24L160.04,223.13L159.93,223.01L159.82,222.9L159.71,222.79L159.6,222.67L159.5,222.56L159.39,222.44L159.28,222.33L159.17,222.21L159.07,222.1L158.96,221.98L158.86,221.86L158.75,221.75L158.65,221.63L158.54,221.51L158.44,221.39L158.34,221.27L158.23,221.16L158.13,221.04L158.03,220.92L157.93,220.8L157.82,220.68" style="vector-effect: non-scaling-stroke; fill: none; stroke: rgb(102, 102, 102); stroke-opacity: 1; stroke-width: 4px; opacity: 1; stroke-dasharray: 2px, 2px;"/></g><g class="points"/><g class="text"/></g><g class="trace scatter trace0d8c3d" style="stroke-miterlimit: 2; opacity: 1;"><g class="fills"/><g class="errorbars"/><g class="lines"><path class="js-line" d="M182.23,247.39L181.84,247.32L181.45,247.25L181.06,247.18L180.67,247.1L180.29,247.02L179.9,246.93L179.51,246.85L179.12,246.76L178.74,246.66L178.35,246.57L177.97,246.47L177.59,246.37L177.2,246.27L176.82,246.16L176.44,246.05L176.06,245.94L175.68,245.83L175.3,245.71L174.92,245.59L174.54,245.47L174.17,245.35L173.79,245.22L173.42,245.09L173.04,244.96L172.67,244.82L172.3,244.69L171.93,244.55L171.56,244.4L171.19,244.26L170.82,244.11L170.45,243.96L170.09,243.8L169.72,243.65L169.36,243.49L168.99,243.33L168.63,243.17L168.27,243L167.91,242.83L167.56,242.66L167.2,242.49L166.84,242.31L166.49,242.13L166.14,241.95L165.79,241.77L165.44,241.58L165.09,241.39L164.74,241.2L164.39,241.01L164.05,240.81L163.7,240.61L163.36,240.41L163.02,240.21L162.68,240L162.34,239.8L162.01,239.59L161.67,239.37L161.34,239.16L161.01,238.94L160.68,238.72L160.35,238.5L160.02,238.27L159.7,238.05L159.37,237.82L159.05,237.59L158.73,237.35L158.41,237.12L158.09,236.88L157.78,236.64L157.46,236.4L157.15,236.15L156.84,235.91L156.53,235.66L156.22,235.41L155.92,235.15L155.62,234.9L155.31,234.64L155.01,234.38L154.72,234.12L154.42,233.85L154.13,233.59L153.83,233.32L153.54,233.05L153.26,232.78L152.97,232.5L152.68,232.23L152.4,231.95L152.12,231.67L151.84,231.39L151.57,231.1L151.29,230.82L151.02,230.53L150.75,230.24L150.48,229.95L150.21,229.65L149.95,229.36L149.69,229.06L149.42,228.76L149.17,228.46L148.91,228.16" style="vector-effect: non-scaling-stroke; fill: none; stroke: rgb(170, 170, 170); stroke-opacity: 1; stroke-width: 4px; opacity: 1;"/></g><g class="points"/><g class="text"/></g><g class="trace scatter trace1d6ee9" style="stroke-miterlimit: 2; opacity: 1;"><g class="fills"/><g class="errorbars"/><g class="lines"><path class="js-line" d="M131.89,242.44L131.71,242.23L131.53,242.02L131.36,241.8L131.18,241.59L131.01,241.37L130.83,241.16L130.66,240.94L130.49,240.73L130.32,240.51L130.15,240.29L129.98,240.07L129.81,239.85L129.64,239.63L129.47,239.41L129.3,239.19L129.14,238.97L128.97,238.75L128.81,238.53L128.64,238.3L128.48,238.08L128.32,237.86L128.16,237.63L128,237.41L127.84,237.18L127.68,236.95L127.52,236.73L127.36,236.5L127.21,236.27L127.05,236.04L126.9,235.81L126.74,235.58L126.59,235.35L126.44,235.12L126.29,234.89L126.13,234.66L125.98,234.43L125.84,234.19L125.69,233.96L125.54,233.72L125.39,233.49L125.25,233.26L125.1,233.02L124.96,232.78L124.81,232.55L124.67,232.31L124.53,232.07L124.39,231.83L124.25,231.6L124.11,231.36L123.97,231.12L123.83,230.88L123.7,230.64L123.56,230.39L123.43,230.15L123.29,229.91L123.16,229.67L123.03,229.43L122.9,229.18L122.77,228.94L122.64,228.69L122.51,228.45L122.38,228.2L122.25,227.96L122.12,227.71L122,227.47L121.87,227.22L121.75,226.97L121.63,226.72L121.51,226.47L121.38,226.23L121.26,225.98L121.15,225.73L121.03,225.48L120.91,225.23L120.79,224.98L120.68,224.72L120.56,224.47L120.45,224.22L120.33,223.97L120.22,223.72L120.11,223.46L120,223.21L119.89,222.95L119.78,222.7L119.67,222.44L119.57,222.19L119.46,221.93L119.36,221.68L119.25,221.42L119.15,221.17L119.05,220.91L118.94,220.65L118.84,220.39L118.74,220.13L118.65,219.88L118.55,219.62L118.45,219.36L118.36,219.1L118.26,218.84" style="vector-effect: non-scaling-stroke; fill: none; stroke: rgb(51, 51, 51); stroke-opacity: 1; stroke-width: 4px; opacity: 1;"/></g><g class="points"/><g class="text"/></g><g class="trace scatter tracebaf09a" style="stroke-miterlimit: 2; opacity: 1;"><g class="fills"/><g class="errorbars"/><g class="lines"><path class="js-line" d="M116.95,219.32L116.85,219.05L116.76,218.79L116.66,218.52L116.57,218.26L116.48,217.99L116.39,217.72L116.29,217.46L116.21,217.19L116.12,216.92L116.03,216.65L115.94,216.39L115.86,216.12L115.77,215.85L115.69,215.58L115.61,215.31L115.53,215.04L115.44,214.77L115.36,214.5L115.29,214.23L115.21,213.96L115.13,213.69L115.06,213.42L114.98,213.15L114.91,212.88L114.83,212.6L114.76,212.33L114.69,212.06L114.62,211.79L114.55,211.51L114.48,211.24L114.41,210.97L114.35,210.69L114.28,210.42L114.22,210.15L114.15,209.87L114.09,209.6L114.03,209.32L113.97,209.05L113.91,208.77L113.85,208.5L113.79,208.22L113.74,207.94L113.68,207.67L113.63,207.39L113.57,207.12L113.52,206.84L113.47,206.56L113.42,206.29L113.37,206.01L113.32,205.73L113.27,205.45L113.22,205.18L113.18,204.9L113.13,204.62L113.09,204.34L113.05,204.06L113,203.78L112.96,203.51L112.92,203.23L112.88,202.95L112.85,202.67L112.81,202.39L112.77,202.11L112.74,201.83L112.7,201.55L112.67,201.27L112.64,200.99L112.61,200.71L112.58,200.43L112.55,200.15L112.52,199.87L112.49,199.59L112.46,199.31L112.44,199.03L112.42,198.75L112.39,198.47L112.37,198.19L112.35,197.91L112.33,197.63L112.31,197.35L112.29,197.07L112.27,196.78L112.26,196.5L112.24,196.22L112.23,195.94L112.21,195.66L112.2,195.38L112.19,195.1L112.18,194.82L112.17,194.53L112.16,194.25L112.15,193.97L112.15,193.69L112.14,193.41L112.14,193.13L112.13,192.84L112.13,192.56L112.13,192.28L112.13,192" style="vector-effect: non-scaling-stroke; fill: none; stroke: rgb(102, 102, 102); stroke-opacity: 1; stroke-width: 4px; opacity: 1; stroke-dasharray: 2px, 2px;"/></g><g class="points"/><g class="text"/></g><g class="trace scatter tracea80698" style="stroke-miterlimit: 2; opacity: 1;"><g class="fills"/><g class="errorbars"/><g class="lines"><path class="js-line" d="M118.74,253.47L118.31,252.95L117.88,252.43L117.46,251.91L117.04,251.38L116.62,250.85L116.21,250.32L115.8,249.78L115.39,249.24L114.99,248.7L114.59,248.15L114.2,247.61L113.81,247.06L113.42,246.5L113.04,245.95L112.66,245.39L112.29,244.83L111.92,244.27L111.55,243.7L111.19,243.13L110.83,242.56L110.48,241.99L110.13,241.41L109.78,240.83L109.44,240.25L109.1,239.67L108.76,239.08L108.43,238.49L108.11,237.9L107.79,237.31L107.47,236.72L107.16,236.12L106.85,235.52L106.54,234.92L106.24,234.31L105.95,233.71L105.65,233.1L105.37,232.49L105.08,231.88L104.8,231.27L104.53,230.65L104.26,230.03L103.99,229.41L103.73,228.79L103.47,228.17L103.22,227.54L102.97,226.91L102.73,226.29L102.49,225.66L102.25,225.02L102.02,224.39L101.8,223.75L101.58,223.12L101.36,222.48L101.15,221.84L100.94,221.2L100.73,220.56L100.53,219.91L100.34,219.27L100.15,218.62L99.96,217.97L99.78,217.32L99.61,216.67L99.44,216.02L99.27,215.36L99.11,214.71L98.95,214.05L98.8,213.4L98.65,212.74L98.5,212.08L98.36,211.42L98.23,210.76L98.1,210.1L97.97,209.44L97.85,208.77L97.74,208.11L97.63,207.44L97.52,206.78L97.42,206.11L97.32,205.44L97.23,204.77L97.14,204.11L97.06,203.44L96.98,202.77L96.91,202.1L96.84,201.43L96.77,200.75L96.71,200.08L96.66,199.41L96.61,198.74L96.56,198.07L96.52,197.39L96.49,196.72L96.46,196.04L96.43,195.37L96.41,194.7L96.39,194.02L96.38,193.35L96.37,192.67L96.37,192" style="vector-effect: non-scaling-stroke; fill: none; stroke: rgb(170, 170, 170); stroke-opacity: 1; stroke-width: 4px; opacity: 1;"/></g><g class="points"/><g class="text"/></g><g class="trace scatter trace733622" style="stroke-miterlimit: 2; opacity: 1;"><g class="fills"/><g class="errorbars"/><g class="lines"/><g class="points"/><g class="text"/></g><g class="trace scatter trace88e274" style="stroke-miterlimit: 2; opacity: 1;"><g class="fills"/><g class="errorbars"/><g class="lines"/><g class="points"/><g class="text"/></g><g class="trace scatter tracedfefbf" style="stroke-miterlimit: 2; opacity: 1;"><g class="fills"/><g class="errorbars"/><g class="lines"/><g class="points"/><g class="text"/></g><g class="trace scatter trace61f95f" style="stroke-miterlimit: 2; opacity: 1;"><g class="fills"><g><path class="js-fill" d="M0.01,194.35L192,192L0.01,189.65Z" style="fill: rgb(0, 0, 0); fill-opacity: 1; stroke-width: 0;"/></g></g><g class="errorbars"/><g class="lines"><path class="js-line" d="M0.01,194.35L192,192L0.01,189.65" style="vector-effect: non-scaling-stroke; fill: none; stroke: rgb(239, 85, 59); stroke-opacity: 1; stroke-width: 0px; opacity: 1;"/></g><g class="points"/><g class="text"/></g><g class="trace scatter tracec10b90" style="stroke-miterlimit: 2; opacity: 1;"><g class="fills"><g><path class="js-fill" d="M43.42,70.39L192,192L46.44,66.8Z" style="fill: rgb(0, 0, 0); fill-opacity: 1; stroke-width: 0;"/></g></g><g class="errorbars"/><g class="lines"><path class="js-line" d="M43.42,70.39L192,192L46.44,66.8" style="vector-effect: non-scaling-stroke; fill: none; stroke: rgb(0, 204, 150); stroke-opacity: 1; stroke-width: 0px; opacity: 1;"/></g><g class="points"/><g class="text"/></g><g class="trace scatter trace250b9a" style="stroke-miterlimit: 2; opacity: 1;"><g class="fills"><g><path class="js-fill" d="M156.35,3.34L192,192L160.97,2.52Z" style="fill: rgb(0, 0, 0); fill-opacity: 1; stroke-width: 0;"/></g></g><g class="errorbars"/><g class="lines"><path class="js-line" d="M156.35,3.34L192,192L160.97,2.52" style="vector-effect: non-scaling-stroke; fill: none; stroke: rgb(171, 99, 250); stroke-opacity: 1; stroke-width: 0px; opacity: 1;"/></g><g class="points"/><g class="text"/></g><g class="trace scatter tracef772dd" style="stroke-miterlimit: 2; opacity: 1;"><g class="fills"><g><path class="js-fill" d="M285.96,24.56L192,192L290.02,26.91Z" style="fill: rgb(0, 0, 0); fill-opacity: 1; stroke-width: 0;"/></g></g><g class="errorbars"/><g class="lines"><path class="js-line" d="M285.96,24.56L192,192L290.02,26.91" style="vector-effect: non-scaling-stroke; fill: none; stroke: rgb(255, 161, 90); stroke-opacity: 1; stroke-width: 0px; opacity: 1;"/></g><g class="points"/><g class="text"/></g><g class="trace scatter trace61c476" style="stroke-miterlimit: 2; opacity: 1;"><g class="fills"><g><path class="js-fill" d="M371.61,124.13L192,192L373.21,128.54Z" style="fill: rgb(0, 0, 0); fill-opacity: 1; stroke-width: 0;"/></g></g><g class="errorbars"/><g class="lines"><path class="js-line" d="M371.61,124.13L192,192L373.21,128.54" style="vector-effect: non-scaling-stroke; fill: none; stroke: rgb(25, 211, 243); stroke-opacity: 1; stroke-width: 0px; opacity: 1;"/></g><g class="points"/><g class="text"/></g><g class="trace scatter trace1b2613" style="stroke-miterlimit: 2; opacity: 1;"><g class="fills"><g><path class="js-fill" d="M373.21,255.46L192,192L371.61,259.87Z" style="fill: rgb(0, 0, 0); fill-opacity: 1; stroke-width: 0;"/></g></g><g class="errorbars"/><g class="lines"><path class="js-line" d="M373.21,255.46L192,192L371.61,259.87" style="vector-effect: non-scaling-stroke; fill: none; stroke: rgb(255, 102, 146); stroke-opacity: 1; stroke-width: 0px; opacity: 1;"/></g><g class="points"/><g class="text"/></g><g class="trace scatter tracef06dea" style="stroke-miterlimit: 2; opacity: 1;"><g class="fills"><g><path class="js-fill" d="M290.02,357.09L192,192L285.96,359.44Z" style="fill: rgb(0, 0, 0); fill-opacity: 1; stroke-width: 0;"/></g></g><g class="errorbars"/><g class="lines"><path class="js-line" d="M290.02,357.09L192,192L285.96,359.44" style="vector-effect: non-scaling-stroke; fill: none; stroke: rgb(182, 232, 128); stroke-opacity: 1; stroke-width: 0px; opacity: 1;"/></g><g class="points"/><g class="text"/></g><g class="trace scatter trace791350" style="stroke-miterlimit: 2; opacity: 1;"><g class="fills"><g><path class="js-fill" d="M160.97,381.48L192,192L156.35,380.66Z" style="fill: rgb(0, 0, 0); fill-opacity: 1; stroke-width: 0;"/></g></g><g class="errorbars"/><g class="lines"><path class="js-line" d="M160.97,381.48L192,192L156.35,380.66" style="vector-effect: non-scaling-stroke; fill: none; stroke: rgb(255, 151, 255); stroke-opacity: 1; stroke-width: 0px; opacity: 1;"/></g><g class="points"/><g class="text"/></g><g class="trace scatter trace27a347" style="stroke-miterlimit: 2; opacity: 1;"><g class="fills"><g><path class="js-fill" d="M46.44,317.2L192,192L43.42,313.61Z" style="fill: rgb(0, 0, 0); fill-opacity: 1; stroke-width: 0;"/></g></g><g class="errorbars"/><g class="lines"><path class="js-line" d="M46.44,317.2L192,192L43.42,313.61" style="vector-effect: non-scaling-stroke; fill: none; stroke: rgb(254, 203, 82); stroke-opacity: 1; stroke-width: 0px; opacity: 1;"/></g><g class="points"/><g class="text"/></g></g></g><g class="polarsublayer angular-line"><path d="M192,0A192,192 0,1,0 -192,-2.351321854362918e-14A192,192 0,1,0 192,4.702643708725836e-14Z" transform="translate(440,272)" stroke-width="1" style="fill: none; stroke: rgb(255, 255, 255); stroke-opacity: 1;"/></g><g class="polarsublayer radial-line"><line display="none" style="fill: none; stroke: rgb(0, 0, 0); stroke-opacity: 1;"/></g><g class="polarsublayer angular-axis"><path class="angularaxistick ticks" d="M-0.5,0h-10" transform="translate(259.5790168091056,206.3321324814716)rotate(200)" style="stroke: rgb(68, 68, 68); stroke-opacity: 1; stroke-width: 1px;"/><path class="angularaxistick ticks" d="M-0.5,0h-10" transform="translate(343.9999999999999,105.7231224733878)rotate(240)" style="stroke: rgb(68, 68, 68); stroke-opacity: 1; stroke-width: 1px;"/><path class="angularaxistick ticks" d="M-0.5,0h-10" transform="translate(473.3404501120506,82.91691142165604)rotate(280)" style="stroke: rgb(68, 68, 68); stroke-opacity: 1; stroke-width: 1px;"/><path class="angularaxistick ticks" d="M-0.5,0h-10" transform="translate(587.0805330788437,148.5847789401844)rotate(320)" style="stroke: rgb(68, 68, 68); stroke-opacity: 1; stroke-width: 1px;"/><path class="angularaxistick ticks" d="M-0.5,0h-10" transform="translate(632,271.99999999999994)rotate(360)" style="stroke: rgb(68, 68, 68); stroke-opacity: 1; stroke-width: 1px;"/><path class="angularaxistick ticks" d="M-0.5,0h-10" transform="translate(587.0805330788438,395.4152210598155)rotate(400)" style="stroke: rgb(68, 68, 68); stroke-opacity: 1; stroke-width: 1px;"/><path class="angularaxistick ticks" d="M-0.5,0h-10" transform="translate(473.34045011205063,461.0830885783439)rotate(440.00000000000006)" style="stroke: rgb(68, 68, 68); stroke-opacity: 1; stroke-width: 1px;"/><path class="angularaxistick ticks" d="M-0.5,0h-10" transform="translate(343.9999999999999,438.2768775266121)rotate(480.00000000000006)" style="stroke: rgb(68, 68, 68); stroke-opacity: 1; stroke-width: 1px;"/><path class="angularaxistick ticks" d="M-0.5,0h-10" transform="translate(259.5790168091056,337.6678675185284)rotate(520)" style="stroke: rgb(68, 68, 68); stroke-opacity: 1; stroke-width: 1px;"/><g class="angularaxistick"><text text-anchor="end" x="-2.725108600279135" y="2.1340022476747706" transform="translate(259.5790168091056,206.3321324814716)translate(0,-10.467757117940216)" style="font-family: 'Open Sans', verdana, arial, sans-serif; font-size: 12px; fill: rgb(42, 63, 95); fill-opacity: 1; white-space: pre; opacity: 1;"><tspan class="line" dy="0em" x="-2.725108600279135" y="2.1340022476747706">Biosphere</tspan><tspan class="line" dy="1.3em" x="-2.725108600279135" y="2.1340022476747706">integrity</tspan></text></g><g class="angularaxistick"><text text-anchor="end" x="-1.4500000000000015" y="-2.4899346400575233" transform="translate(343.9999999999999,105.7231224733878)translate(0,-14.554998149518621)" style="font-family: 'Open Sans', verdana, arial, sans-serif; font-size: 12px; fill: rgb(42, 63, 95); fill-opacity: 1; white-space: pre; opacity: 1;"><tspan class="line" dy="0em" x="-1.4500000000000015" y="-2.4899346400575233">Climate</tspan><tspan class="line" dy="1.3em" x="-1.4500000000000015" y="-2.4899346400575233">change</tspan></text></g><g class="angularaxistick"><text text-anchor="start" x="0.503579715234097" y="-4.4901587447635976" transform="translate(473.3404501120506,82.91691142165604)translate(0,-15.481500473495224)" style="font-family: 'Open Sans', verdana, arial, sans-serif; font-size: 12px; fill: rgb(42, 63, 95); fill-opacity: 1; white-space: pre; opacity: 1;"><tspan class="line" dy="0em" x="0.503579715234097" y="-4.4901587447635976">Stratospheric</tspan><tspan class="line" dy="1.3em" x="0.503579715234097" y="-4.4901587447635976">ozone</tspan></text></g><g class="angularaxistick"><text text-anchor="start" x="2.2215288850450357" y="-0.1893876702389541" transform="translate(587.0805330788437,148.5847789401844)" style="font-family: 'Open Sans', verdana, arial, sans-serif; font-size: 12px; fill: rgb(42, 63, 95); fill-opacity: 1; white-space: pre; opacity: 1;">Aerosols</text></g><g class="angularaxistick"><text text-anchor="start" x="2.9000000000000004" y="4.199999999999998" transform="translate(632,271.99999999999994)translate(0,-7.8000000000000025)" style="font-family: 'Open Sans', verdana, arial, sans-serif; font-size: 12px; fill: rgb(42, 63, 95); fill-opacity: 1; white-space: pre; opacity: 1;"><tspan class="line" dy="0em" x="2.9000000000000004" y="4.199999999999998">Ocean</tspan><tspan class="line" dy="1.3em" x="2.9000000000000004" y="4.199999999999998">acidification</tspan></text></g><g class="angularaxistick"><text text-anchor="start" x="2.221528885045037" y="12.794922045429141" transform="translate(587.0805330788438,395.4152210598155)translate(0,-2.786256644444995)" style="font-family: 'Open Sans', verdana, arial, sans-serif; font-size: 12px; fill: rgb(42, 63, 95); fill-opacity: 1; white-space: pre; opacity: 1;"><tspan class="line" dy="0em" x="2.221528885045037" y="12.794922045429141">Nitrogen</tspan><tspan class="line" dy="1.3em" x="2.221528885045037" y="12.794922045429141">balance</tspan></text></g><g class="angularaxistick"><text text-anchor="start" x="0.5035797152340984" y="15.402957866083009" transform="translate(473.34045011205063,461.0830885783439)translate(0,-0.11849952650477745)" style="font-family: 'Open Sans', verdana, arial, sans-serif; font-size: 12px; fill: rgb(42, 63, 95); fill-opacity: 1; white-space: pre; opacity: 1;"><tspan class="line" dy="0em" x="0.5035797152340984" y="15.402957866083009">Phosphorous</tspan><tspan class="line" dy="1.3em" x="0.5035797152340984" y="15.402957866083009">balance</tspan></text></g><g class="angularaxistick"><text text-anchor="end" x="-1.4500000000000024" y="15.003778516388133" transform="translate(343.9999999999999,438.2768775266121)translate(0,-1.0450018504813816)" style="font-family: 'Open Sans', verdana, arial, sans-serif; font-size: 12px; fill: rgb(42, 63, 95); fill-opacity: 1; white-space: pre; opacity: 1;"><tspan class="line" dy="0em" x="-1.4500000000000024" y="15.003778516388133">Freshwater</tspan><tspan class="line" dy="1.3em" x="-1.4500000000000024" y="15.003778516388133">use</tspan></text></g><g class="angularaxistick"><text text-anchor="end" x="-2.725108600279135" y="9.04280914285328" transform="translate(259.5790168091056,337.6678675185284)translate(0,-5.132242882059785)" style="font-family: 'Open Sans', verdana, arial, sans-serif; font-size: 12px; fill: rgb(42, 63, 95); fill-opacity: 1; white-space: pre; opacity: 1;"><tspan class="line" dy="0em" x="-2.725108600279135" y="9.04280914285328">Land system</tspan><tspan class="line" dy="1.3em" x="-2.725108600279135" y="9.04280914285328">change</tspan></text></g></g><g class="polarsublayer radial-axis" display="none"/></g></g><g class="smithlayer"/><g class="ternarylayer"/><g class="geolayer"/><g class="funnelarealayer"/><g class="pielayer"/><g class="iciclelayer"/><g class="treemaplayer"/><g class="sunburstlayer"/><g class="glimages"/><defs id="topdefs-1e7dc1"><g class="clips"/><clipPath id="legend1e7dc1"><rect width="550" height="86" x="0" y="0"/></clipPath></defs><g class="layer-above"><g class="imagelayer"/><g class="shapelayer"/></g><g class="infolayer"><g class="legend" pointer-events="all" transform="translate(165,502.40000000000003)"><rect class="bg" shape-rendering="crispEdges" style="stroke: rgb(68, 68, 68); stroke-opacity: 1; fill: rgb(255, 255, 255); fill-opacity: 1; stroke-width: 0px;" width="550" height="86" x="0" y="0"/><g class="scrollbox" transform="" clip-path="url(#legend1e7dc1)"><g class="groups"><g class="traces" transform="translate(0,14.5)" style="opacity: 1;"><text class="legendtext" text-anchor="start" x="40" y="4.680000000000001" style="font-family: 'Open Sans', verdana, arial, sans-serif; font-size: 12px; fill: rgb(42, 63, 95); fill-opacity: 1; white-space: pre;">SSP2:</text><g class="layers" style="opacity: 1;"><g class="legendfill"/><g class="legendlines"><path class="js-line" d="M5,0h30" style="fill: none; stroke: rgb(0, 0, 0); stroke-opacity: 0; stroke-width: 2px;"/></g><g class="legendsymbols"><g class="legendpoints"/></g></g><rect class="legendtoggle" x="0" y="-9.5" width="72.90625" height="19" style="fill: rgb(0, 0, 0); fill-opacity: 0;"/></g><g class="traces" transform="translate(275.28125,14.5)" style="opacity: 1;"><text class="legendtext" text-anchor="start" x="40" y="4.680000000000001" style="font-family: 'Open Sans', verdana, arial, sans-serif; font-size: 12px; fill: rgb(42, 63, 95); fill-opacity: 1; white-space: pre;">(A) Below boundary (safe)</text><g class="layers" style="opacity: 1;"><g class="legendfill"/><g class="legendlines"/><g class="legendsymbols"><g class="legendpoints"><path class="legendundefined" d="M6,6H-6V-6H6Z" transform="translate(20,0)" style="stroke-width: 0px; fill: rgb(134, 168, 81); fill-opacity: 1;"/></g></g></g><rect class="legendtoggle" x="0" y="-9.5" width="185" height="19" style="fill: rgb(0, 0, 0); fill-opacity: 0;"/></g><g class="traces" transform="translate(0,33.5)" style="opacity: 1;"><text class="legendtext" text-anchor="start" x="40" y="4.680000000000001" style="font-family: 'Open Sans', verdana, arial, sans-serif; font-size: 12px; fill: rgb(42, 63, 95); fill-opacity: 1; white-space: pre;">(B) In zone of uncertainty (increasing risk)</text><g class="layers" style="opacity: 1;"><g class="legendfill"/><g class="legendlines"/><g class="legendsymbols"><g class="legendpoints"><path class="legendundefined" d="M6,6H-6V-6H6Z" transform="translate(20,0)" style="stroke-width: 0px; fill: rgb(250, 184, 0); fill-opacity: 1;"/></g></g></g><rect class="legendtoggle" x="0" y="-9.5" width="272.78125" height="19" style="fill: rgb(0, 0, 0); fill-opacity: 0;"/></g><g class="traces" transform="translate(275.28125,33.5)" style="opacity: 1;"><text class="legendtext" text-anchor="start" x="40" y="4.680000000000001" style="font-family: 'Open Sans', verdana, arial, sans-serif; font-size: 12px; fill: rgb(42, 63, 95); fill-opacity: 1; white-space: pre;">(C) Beyond zone of uncertainty (high risk)</text><g class="layers" style="opacity: 1;"><g class="legendfill"/><g class="legendlines"/><g class="legendsymbols"><g class="legendpoints"><path class="legendundefined" d="M6,6H-6V-6H6Z" transform="translate(20,0)" style="stroke-width: 0px; fill: rgb(240, 114, 4); fill-opacity: 1;"/></g></g></g><rect class="legendtoggle" x="0" y="-9.5" width="271.5" height="19" style="fill: rgb(0, 0, 0); fill-opacity: 0;"/></g><g class="traces" transform="translate(0,52.5)" style="opacity: 1;"><text class="legendtext" text-anchor="start" x="40" y="4.680000000000001" style="font-family: 'Open Sans', verdana, arial, sans-serif; font-size: 12px; fill: rgb(42, 63, 95); fill-opacity: 1; white-space: pre;"> </text><g class="layers" style="opacity: 1;"><g class="legendfill"/><g class="legendlines"><path class="js-line" d="M5,0h30" style="fill: none; stroke: rgb(0, 0, 0); stroke-opacity: 0; stroke-width: 2px;"/></g><g class="legendsymbols"><g class="legendpoints"/></g></g><rect class="legendtoggle" x="0" y="-9.5" width="45.625" height="19" style="fill: rgb(0, 0, 0); fill-opacity: 0;"/></g><g class="traces" transform="translate(275.28125,52.5)" style="opacity: 1;"><text class="legendtext" text-anchor="start" x="40" y="4.680000000000001" style="font-family: 'Open Sans', verdana, arial, sans-serif; font-size: 12px; fill: rgb(42, 63, 95); fill-opacity: 1; white-space: pre;">SSP1</text><g class="layers" style="opacity: 1;"><g class="legendfill"/><g class="legendlines"><path class="js-line" d="M5,0h30" style="fill: none; stroke: rgb(51, 51, 51); stroke-opacity: 1; stroke-width: 4px;"/></g><g class="legendsymbols"><g class="legendpoints"/></g></g><rect class="legendtoggle" x="0" y="-9.5" width="69.75" height="19" style="fill: rgb(0, 0, 0); fill-opacity: 0;"/></g><g class="traces" transform="translate(0,71.5)" style="opacity: 1;"><text class="legendtext" text-anchor="start" x="40" y="4.680000000000001" style="font-family: 'Open Sans', verdana, arial, sans-serif; font-size: 12px; fill: rgb(42, 63, 95); fill-opacity: 1; white-space: pre;">SSP3</text><g class="layers" style="opacity: 1;"><g class="legendfill"/><g class="legendlines"><path class="js-line" d="M5,0h30" style="fill: none; stroke: rgb(170, 170, 170); stroke-opacity: 1; stroke-width: 4px;"/></g><g class="legendsymbols"><g class="legendpoints"/></g></g><rect class="legendtoggle" x="0" y="-9.5" width="69.75" height="19" style="fill: rgb(0, 0, 0); fill-opacity: 0;"/></g><g class="traces" transform="translate(275.28125,71.5)" style="opacity: 1;"><text class="legendtext" text-anchor="start" x="40" y="4.680000000000001" style="font-family: 'Open Sans', verdana, arial, sans-serif; font-size: 12px; fill: rgb(42, 63, 95); fill-opacity: 1; white-space: pre;">2015</text><g class="layers" style="opacity: 1;"><g class="legendfill"/><g class="legendlines"><path class="js-line" d="M5,0h30" style="fill: none; stroke: rgb(102, 102, 102); stroke-opacity: 1; stroke-dasharray: 2px, 2px; stroke-width: 4px;"/></g><g class="legendsymbols"><g class="legendpoints"/></g></g><rect class="legendtoggle" x="0" y="-9.5" width="69.953125" height="19" style="fill: rgb(0, 0, 0); fill-opacity: 0;"/></g></g></g><rect class="scrollbar" rx="20" ry="3" width="0" height="0" style="fill: rgb(128, 139, 164); fill-opacity: 1;" x="0" y="0"/></g><g class="g-gtitle"/><g class="g-polartitle"/><g class="g-polar2title"/></g></svg>